<?xml version="1.0" encoding="UTF-8"?>
<svg xmlns="http://www.w3.org/2000/svg" width="1254" height="1254" viewBox="0 0 1254 1254">
  <title>f3-squareathon-2026-logo vectorized black art</title>
  <rect width="100%" height="100%" fill="#ffffff"/>
  <path d="M 683.0 1131.0 L 688.0 1141.0 L 690.0 1143.0 L 1080.0 1143.0 L 1081.0 1144.0 L 1082.0 1143.0 L 1090.0 1143.0 L 1091.0 1142.0 L 1093.0 1142.0 L 1098.0 1139.0 L 1101.0 1134.0 L 1101.0 1133.0 L 1098.0 1131.0 Z M 586.0 1111.0 L 585.0 1112.0 L 585.0 1117.0 L 586.0 1118.0 L 586.0 1123.0 L 587.0 1124.0 L 587.0 1128.0 L 588.0 1129.0 L 588.0 1133.0 L 589.0 1134.0 L 589.0 1139.0 L 590.0 1140.0 L 590.0 1144.0 L 591.0 1145.0 L 591.0 1149.0 L 592.0 1150.0 L 592.0 1154.0 L 593.0 1155.0 L 593.0 1160.0 L 594.0 1161.0 L 595.0 1169.0 L 599.0 1176.0 L 595.0 1186.0 L 595.0 1189.0 L 594.0 1190.0 L 594.0 1194.0 L 596.0 1198.0 L 595.0 1204.0 L 598.0 1208.0 L 598.0 1213.0 L 599.0 1215.0 L 609.0 1215.0 L 610.0 1216.0 L 656.0 1216.0 L 658.0 1218.0 L 657.0 1220.0 L 660.0 1223.0 L 662.0 1223.0 L 664.0 1219.0 L 663.0 1213.0 L 665.0 1211.0 L 671.0 1214.0 L 674.0 1212.0 L 674.0 1207.0 L 675.0 1206.0 L 676.0 1197.0 L 680.0 1188.0 L 683.0 1184.0 L 683.0 1182.0 L 677.0 1176.0 L 675.0 1171.0 L 675.0 1166.0 L 667.0 1157.0 L 667.0 1155.0 L 665.0 1152.0 L 656.0 1143.0 L 653.0 1138.0 L 652.0 1138.0 L 648.0 1134.0 L 647.0 1129.0 L 634.0 1118.0 L 639.0 1113.0 L 639.0 1111.0 Z M 628.0 1154.0 L 630.0 1157.0 L 630.0 1159.0 L 633.0 1166.0 L 646.0 1166.0 L 647.0 1167.0 L 636.0 1175.0 L 636.0 1178.0 L 639.0 1185.0 L 639.0 1187.0 L 638.0 1188.0 L 629.0 1181.0 L 627.0 1181.0 L 618.0 1188.0 L 617.0 1186.0 L 621.0 1175.0 L 611.0 1167.0 L 612.0 1166.0 L 624.0 1166.0 L 627.0 1158.0 L 627.0 1155.0 Z M 1022.0 892.0 L 1021.0 893.0 L 1021.0 918.0 L 1022.0 919.0 L 1026.0 919.0 L 1027.0 920.0 L 1027.0 1068.0 L 1026.0 1069.0 L 1022.0 1069.0 L 1022.0 1095.0 L 1055.0 1095.0 L 1055.0 1069.0 L 1051.0 1069.0 L 1050.0 1068.0 L 1050.0 997.0 L 1051.0 996.0 L 1052.0 997.0 L 1052.0 1001.0 L 1053.0 1002.0 L 1053.0 1005.0 L 1055.0 1010.0 L 1055.0 1014.0 L 1056.0 1015.0 L 1056.0 1018.0 L 1057.0 1019.0 L 1057.0 1022.0 L 1059.0 1027.0 L 1059.0 1031.0 L 1060.0 1032.0 L 1060.0 1035.0 L 1061.0 1036.0 L 1061.0 1039.0 L 1063.0 1044.0 L 1063.0 1048.0 L 1064.0 1049.0 L 1064.0 1052.0 L 1066.0 1057.0 L 1066.0 1061.0 L 1067.0 1062.0 L 1067.0 1065.0 L 1069.0 1070.0 L 1069.0 1074.0 L 1070.0 1075.0 L 1070.0 1078.0 L 1072.0 1083.0 L 1072.0 1087.0 L 1073.0 1088.0 L 1074.0 1095.0 L 1095.0 1095.0 L 1095.0 920.0 L 1096.0 919.0 L 1101.0 919.0 L 1101.0 892.0 L 1068.0 892.0 L 1067.0 893.0 L 1068.0 895.0 L 1068.0 919.0 L 1072.0 919.0 L 1073.0 920.0 L 1073.0 987.0 L 1072.0 988.0 L 1071.0 987.0 L 1071.0 983.0 L 1070.0 982.0 L 1070.0 979.0 L 1068.0 974.0 L 1068.0 970.0 L 1066.0 965.0 L 1066.0 961.0 L 1065.0 960.0 L 1065.0 957.0 L 1063.0 952.0 L 1063.0 948.0 L 1062.0 947.0 L 1062.0 944.0 L 1060.0 939.0 L 1060.0 935.0 L 1059.0 934.0 L 1059.0 931.0 L 1057.0 926.0 L 1057.0 922.0 L 1056.0 921.0 L 1056.0 918.0 L 1055.0 917.0 L 1055.0 914.0 L 1054.0 913.0 L 1054.0 910.0 L 1052.0 905.0 L 1052.0 901.0 L 1051.0 900.0 L 1050.0 893.0 L 1049.0 892.0 Z M 959.0 892.0 L 955.0 896.0 L 943.0 912.0 L 943.0 1076.0 L 947.0 1080.0 L 958.0 1095.0 L 994.0 1095.0 L 1005.0 1080.0 L 1009.0 1076.0 L 1009.0 912.0 L 994.0 892.0 Z M 971.0 919.0 L 981.0 919.0 L 985.0 923.0 L 985.0 1065.0 L 981.0 1069.0 L 971.0 1069.0 L 966.0 1063.0 L 966.0 1004.0 L 967.0 1003.0 L 967.0 998.0 L 966.0 997.0 L 966.0 924.0 Z M 854.0 892.0 L 854.0 919.0 L 858.0 919.0 L 859.0 920.0 L 859.0 1068.0 L 858.0 1069.0 L 854.0 1069.0 L 854.0 1095.0 L 887.0 1095.0 L 887.0 1070.0 L 882.0 1068.0 L 882.0 1007.0 L 883.0 1006.0 L 900.0 1006.0 L 901.0 1007.0 L 901.0 1068.0 L 900.0 1069.0 L 896.0 1069.0 L 896.0 1095.0 L 929.0 1095.0 L 929.0 1069.0 L 925.0 1069.0 L 924.0 1068.0 L 924.0 920.0 L 925.0 919.0 L 929.0 919.0 L 929.0 892.0 L 896.0 892.0 L 896.0 919.0 L 900.0 919.0 L 901.0 920.0 L 901.0 978.0 L 900.0 979.0 L 883.0 979.0 L 882.0 978.0 L 882.0 920.0 L 887.0 918.0 L 887.0 893.0 L 886.0 892.0 Z M 769.0 892.0 L 769.0 941.0 L 787.0 941.0 L 787.0 920.0 L 788.0 919.0 L 793.0 919.0 L 794.0 920.0 L 794.0 1068.0 L 793.0 1069.0 L 789.0 1069.0 L 789.0 1095.0 L 822.0 1095.0 L 822.0 1069.0 L 818.0 1069.0 L 817.0 1068.0 L 817.0 920.0 L 818.0 919.0 L 823.0 919.0 L 824.0 920.0 L 824.0 941.0 L 841.0 941.0 L 842.0 940.0 L 842.0 893.0 L 841.0 892.0 Z M 709.0 892.0 L 708.0 893.0 L 708.0 918.0 L 713.0 920.0 L 712.0 921.0 L 712.0 927.0 L 711.0 928.0 L 711.0 935.0 L 710.0 936.0 L 710.0 943.0 L 709.0 944.0 L 709.0 951.0 L 708.0 952.0 L 708.0 959.0 L 707.0 960.0 L 706.0 975.0 L 705.0 976.0 L 705.0 982.0 L 704.0 983.0 L 704.0 990.0 L 703.0 991.0 L 703.0 998.0 L 702.0 999.0 L 702.0 1007.0 L 701.0 1008.0 L 701.0 1014.0 L 700.0 1015.0 L 700.0 1022.0 L 699.0 1023.0 L 699.0 1030.0 L 698.0 1031.0 L 697.0 1046.0 L 696.0 1047.0 L 696.0 1053.0 L 695.0 1054.0 L 695.0 1060.0 L 694.0 1061.0 L 694.0 1068.0 L 693.0 1069.0 L 689.0 1069.0 L 688.0 1070.0 L 688.0 1094.0 L 689.0 1095.0 L 721.0 1095.0 L 721.0 1069.0 L 717.0 1069.0 L 716.0 1068.0 L 718.0 1051.0 L 720.0 1049.0 L 739.0 1049.0 L 741.0 1053.0 L 742.0 1068.0 L 737.0 1070.0 L 737.0 1095.0 L 770.0 1095.0 L 770.0 1069.0 L 766.0 1069.0 L 764.0 1064.0 L 764.0 1057.0 L 763.0 1056.0 L 763.0 1048.0 L 762.0 1047.0 L 762.0 1040.0 L 761.0 1039.0 L 761.0 1032.0 L 760.0 1031.0 L 759.0 1016.0 L 758.0 1015.0 L 758.0 1009.0 L 757.0 1008.0 L 757.0 1001.0 L 756.0 1000.0 L 756.0 994.0 L 755.0 993.0 L 755.0 986.0 L 754.0 985.0 L 754.0 978.0 L 753.0 977.0 L 752.0 962.0 L 751.0 961.0 L 750.0 947.0 L 749.0 946.0 L 749.0 940.0 L 748.0 939.0 L 748.0 933.0 L 747.0 932.0 L 747.0 925.0 L 746.0 924.0 L 746.0 920.0 L 751.0 918.0 L 751.0 893.0 L 750.0 892.0 Z M 729.0 959.0 L 730.0 960.0 L 730.0 964.0 L 731.0 965.0 L 731.0 975.0 L 732.0 976.0 L 732.0 983.0 L 733.0 984.0 L 733.0 993.0 L 734.0 994.0 L 735.0 1011.0 L 736.0 1012.0 L 736.0 1018.0 L 737.0 1019.0 L 737.0 1022.0 L 736.0 1023.0 L 723.0 1023.0 L 722.0 1022.0 L 722.0 1014.0 L 723.0 1013.0 L 724.0 997.0 L 725.0 996.0 L 726.0 980.0 L 727.0 979.0 L 727.0 970.0 L 728.0 969.0 L 728.0 960.0 Z M 608.0 892.0 L 608.0 919.0 L 612.0 919.0 L 613.0 920.0 L 613.0 1063.0 L 614.0 1064.0 L 614.0 1068.0 L 613.0 1069.0 L 608.0 1069.0 L 608.0 1095.0 L 675.0 1095.0 L 676.0 1094.0 L 676.0 1075.0 L 675.0 1074.0 L 675.0 1069.0 L 676.0 1068.0 L 676.0 1047.0 L 675.0 1046.0 L 654.0 1046.0 L 654.0 1068.0 L 653.0 1069.0 L 638.0 1069.0 L 637.0 1068.0 L 637.0 1006.0 L 638.0 1005.0 L 661.0 1005.0 L 662.0 1004.0 L 662.0 980.0 L 661.0 979.0 L 638.0 979.0 L 637.0 978.0 L 637.0 920.0 L 638.0 919.0 L 653.0 919.0 L 654.0 920.0 L 654.0 941.0 L 675.0 941.0 L 676.0 940.0 L 676.0 893.0 L 675.0 892.0 Z M 523.0 892.0 L 522.0 893.0 L 522.0 918.0 L 527.0 920.0 L 527.0 1068.0 L 526.0 1069.0 L 522.0 1069.0 L 522.0 1095.0 L 555.0 1095.0 L 555.0 1069.0 L 552.0 1069.0 L 551.0 1068.0 L 551.0 1017.0 L 552.0 1016.0 L 555.0 1016.0 L 557.0 1019.0 L 557.0 1024.0 L 559.0 1029.0 L 559.0 1034.0 L 560.0 1035.0 L 560.0 1039.0 L 561.0 1040.0 L 561.0 1044.0 L 562.0 1045.0 L 562.0 1050.0 L 563.0 1051.0 L 563.0 1055.0 L 564.0 1056.0 L 564.0 1061.0 L 565.0 1062.0 L 565.0 1066.0 L 566.0 1067.0 L 566.0 1072.0 L 567.0 1073.0 L 567.0 1077.0 L 568.0 1078.0 L 568.0 1083.0 L 569.0 1084.0 L 569.0 1088.0 L 570.0 1089.0 L 570.0 1094.0 L 571.0 1095.0 L 596.0 1095.0 L 596.0 1069.0 L 591.0 1069.0 L 589.0 1067.0 L 588.0 1056.0 L 587.0 1055.0 L 586.0 1045.0 L 585.0 1044.0 L 585.0 1040.0 L 584.0 1039.0 L 584.0 1034.0 L 583.0 1033.0 L 583.0 1029.0 L 582.0 1028.0 L 582.0 1023.0 L 581.0 1022.0 L 581.0 1018.0 L 580.0 1017.0 L 580.0 1013.0 L 593.0 997.0 L 593.0 912.0 L 577.0 892.0 Z M 552.0 919.0 L 565.0 919.0 L 570.0 924.0 L 569.0 925.0 L 569.0 985.0 L 565.0 989.0 L 553.0 989.0 L 552.0 990.0 L 551.0 989.0 L 551.0 920.0 Z M 448.0 892.0 L 448.0 919.0 L 451.0 919.0 L 452.0 920.0 L 452.0 924.0 L 451.0 925.0 L 451.0 932.0 L 450.0 933.0 L 450.0 939.0 L 449.0 940.0 L 449.0 947.0 L 448.0 948.0 L 447.0 963.0 L 446.0 964.0 L 446.0 970.0 L 445.0 971.0 L 445.0 979.0 L 444.0 980.0 L 443.0 995.0 L 442.0 996.0 L 442.0 1002.0 L 441.0 1003.0 L 441.0 1010.0 L 440.0 1011.0 L 440.0 1017.0 L 439.0 1018.0 L 439.0 1024.0 L 438.0 1025.0 L 437.0 1040.0 L 436.0 1041.0 L 436.0 1047.0 L 435.0 1048.0 L 434.0 1064.0 L 432.0 1069.0 L 428.0 1069.0 L 428.0 1095.0 L 461.0 1095.0 L 461.0 1069.0 L 456.0 1069.0 L 455.0 1068.0 L 456.0 1067.0 L 457.0 1053.0 L 459.0 1050.0 L 479.0 1050.0 L 480.0 1051.0 L 482.0 1068.0 L 481.0 1069.0 L 477.0 1069.0 L 477.0 1095.0 L 510.0 1095.0 L 510.0 1069.0 L 505.0 1069.0 L 504.0 1068.0 L 504.0 1059.0 L 503.0 1058.0 L 503.0 1051.0 L 502.0 1050.0 L 501.0 1035.0 L 500.0 1034.0 L 500.0 1028.0 L 499.0 1027.0 L 499.0 1021.0 L 498.0 1020.0 L 496.0 996.0 L 495.0 995.0 L 495.0 989.0 L 494.0 988.0 L 494.0 981.0 L 493.0 980.0 L 492.0 965.0 L 491.0 964.0 L 490.0 950.0 L 489.0 949.0 L 489.0 942.0 L 488.0 941.0 L 488.0 934.0 L 487.0 933.0 L 487.0 926.0 L 486.0 925.0 L 486.0 920.0 L 490.0 918.0 L 490.0 892.0 Z M 469.0 960.0 L 470.0 961.0 L 470.0 970.0 L 471.0 971.0 L 471.0 980.0 L 472.0 981.0 L 472.0 989.0 L 473.0 990.0 L 473.0 998.0 L 474.0 999.0 L 474.0 1007.0 L 475.0 1008.0 L 476.0 1023.0 L 475.0 1024.0 L 462.0 1024.0 L 461.0 1023.0 L 461.0 1021.0 L 462.0 1020.0 L 462.0 1012.0 L 463.0 1011.0 L 464.0 995.0 L 465.0 994.0 L 465.0 985.0 L 466.0 984.0 L 466.0 976.0 L 467.0 975.0 L 467.0 965.0 Z M 343.0 892.0 L 343.0 919.0 L 347.0 919.0 L 348.0 920.0 L 348.0 1075.0 L 363.0 1095.0 L 400.0 1095.0 L 404.0 1091.0 L 406.0 1087.0 L 415.0 1076.0 L 415.0 920.0 L 416.0 919.0 L 421.0 919.0 L 422.0 918.0 L 422.0 904.0 L 421.0 903.0 L 421.0 901.0 L 422.0 900.0 L 422.0 893.0 L 421.0 892.0 L 387.0 892.0 L 387.0 918.0 L 392.0 920.0 L 392.0 1064.0 L 387.0 1069.0 L 377.0 1069.0 L 372.0 1064.0 L 372.0 920.0 L 377.0 918.0 L 377.0 892.0 Z M 277.0 892.0 L 262.0 912.0 L 262.0 1076.0 L 276.0 1095.0 L 292.0 1095.0 L 303.0 1116.0 L 330.0 1116.0 L 330.0 1114.0 L 328.0 1112.0 L 324.0 1103.0 L 322.0 1101.0 L 317.0 1091.0 L 320.0 1085.0 L 324.0 1081.0 L 328.0 1075.0 L 328.0 917.0 L 327.0 916.0 L 327.0 912.0 L 312.0 892.0 Z M 289.0 919.0 L 300.0 919.0 L 304.0 923.0 L 304.0 1064.0 L 303.0 1065.0 L 287.0 1065.0 L 285.0 1063.0 L 285.0 924.0 Z M 195.0 892.0 L 180.0 912.0 L 180.0 982.0 L 223.0 1023.0 L 223.0 1062.0 L 222.0 1063.0 L 222.0 1065.0 L 217.0 1069.0 L 208.0 1069.0 L 203.0 1063.0 L 203.0 1037.0 L 180.0 1037.0 L 180.0 1076.0 L 191.0 1089.0 L 191.0 1090.0 L 196.0 1095.0 L 231.0 1095.0 L 246.0 1075.0 L 246.0 1046.0 L 245.0 1045.0 L 245.0 1037.0 L 246.0 1036.0 L 245.0 1011.0 L 246.0 1010.0 L 246.0 1008.0 L 245.0 1006.0 L 244.0 1006.0 L 232.0 994.0 L 231.0 994.0 L 220.0 983.0 L 219.0 983.0 L 203.0 967.0 L 203.0 924.0 L 208.0 919.0 L 218.0 919.0 L 223.0 924.0 L 223.0 950.0 L 245.0 950.0 L 246.0 949.0 L 245.0 948.0 L 246.0 947.0 L 246.0 932.0 L 245.0 931.0 L 246.0 913.0 L 238.0 901.0 L 230.0 892.0 Z M 447.0 821.0 L 441.0 825.0 L 441.0 829.0 L 446.0 829.0 L 447.0 830.0 L 447.0 867.0 L 456.0 867.0 L 456.0 821.0 Z M 796.0 820.0 L 790.0 825.0 L 790.0 842.0 L 794.0 845.0 L 800.0 846.0 L 806.0 849.0 L 806.0 859.0 L 805.0 860.0 L 799.0 860.0 L 798.0 859.0 L 798.0 853.0 L 790.0 853.0 L 790.0 862.0 L 795.0 867.0 L 810.0 867.0 L 815.0 862.0 L 815.0 846.0 L 810.0 842.0 L 801.0 840.0 L 798.0 837.0 L 798.0 829.0 L 800.0 827.0 L 805.0 827.0 L 806.0 828.0 L 806.0 835.0 L 814.0 835.0 L 815.0 834.0 L 815.0 826.0 L 810.0 821.0 L 806.0 821.0 L 805.0 820.0 Z M 757.0 820.0 L 756.0 821.0 L 756.0 867.0 L 778.0 867.0 L 778.0 860.0 L 766.0 860.0 L 765.0 859.0 L 765.0 848.0 L 766.0 847.0 L 775.0 847.0 L 775.0 840.0 L 766.0 840.0 L 765.0 839.0 L 765.0 828.0 L 766.0 827.0 L 778.0 827.0 L 778.0 821.0 L 770.0 821.0 L 769.0 820.0 L 759.0 820.0 L 758.0 821.0 Z M 738.0 820.0 L 736.0 821.0 L 719.0 821.0 L 719.0 867.0 L 728.0 867.0 L 728.0 849.0 L 729.0 848.0 L 730.0 848.0 L 732.0 851.0 L 736.0 867.0 L 745.0 867.0 L 744.0 866.0 L 743.0 859.0 L 740.0 852.0 L 740.0 848.0 L 744.0 844.0 L 744.0 825.0 Z M 729.0 827.0 L 734.0 827.0 L 736.0 829.0 L 736.0 840.0 L 734.0 842.0 L 729.0 842.0 L 728.0 841.0 L 728.0 828.0 Z M 699.0 820.0 L 698.0 821.0 L 688.0 821.0 L 687.0 828.0 L 686.0 829.0 L 686.0 833.0 L 685.0 834.0 L 685.0 838.0 L 684.0 839.0 L 683.0 849.0 L 682.0 850.0 L 682.0 855.0 L 681.0 856.0 L 681.0 860.0 L 680.0 861.0 L 680.0 865.0 L 679.0 867.0 L 688.0 867.0 L 689.0 860.0 L 691.0 858.0 L 697.0 858.0 L 699.0 860.0 L 699.0 865.0 L 700.0 867.0 L 708.0 867.0 L 707.0 857.0 L 706.0 856.0 L 706.0 851.0 L 705.0 850.0 L 705.0 846.0 L 704.0 845.0 L 704.0 840.0 L 703.0 839.0 L 701.0 825.0 Z M 694.0 834.0 L 696.0 839.0 L 696.0 846.0 L 697.0 847.0 L 697.0 851.0 L 696.0 852.0 L 695.0 851.0 L 694.0 852.0 L 692.0 852.0 L 691.0 851.0 L 692.0 839.0 Z M 645.0 820.0 L 644.0 821.0 L 644.0 863.0 L 645.0 863.0 L 649.0 867.0 L 664.0 867.0 L 669.0 863.0 L 669.0 820.0 L 668.0 821.0 L 661.0 821.0 L 661.0 859.0 L 660.0 860.0 L 654.0 860.0 L 653.0 859.0 L 653.0 821.0 L 652.0 820.0 Z M 610.0 821.0 L 605.0 826.0 L 605.0 862.0 L 610.0 867.0 L 617.0 867.0 L 622.0 874.0 L 630.0 874.0 L 627.0 868.0 L 627.0 866.0 L 631.0 863.0 L 631.0 825.0 L 626.0 821.0 L 624.0 821.0 L 623.0 820.0 L 615.0 820.0 L 614.0 821.0 Z M 615.0 827.0 L 621.0 827.0 L 622.0 828.0 L 622.0 859.0 L 621.0 860.0 L 615.0 860.0 L 614.0 859.0 L 614.0 828.0 Z M 575.0 820.0 L 568.0 826.0 L 568.0 841.0 L 574.0 846.0 L 582.0 847.0 L 585.0 849.0 L 585.0 859.0 L 584.0 860.0 L 578.0 860.0 L 577.0 859.0 L 577.0 853.0 L 568.0 853.0 L 568.0 862.0 L 573.0 867.0 L 588.0 867.0 L 593.0 863.0 L 593.0 845.0 L 588.0 842.0 L 579.0 840.0 L 577.0 838.0 L 577.0 828.0 L 578.0 827.0 L 583.0 827.0 L 585.0 829.0 L 585.0 835.0 L 593.0 835.0 L 593.0 825.0 L 588.0 821.0 L 581.0 821.0 L 580.0 820.0 L 577.0 820.0 L 576.0 821.0 Z M 528.0 820.0 L 527.0 821.0 L 514.0 821.0 L 509.0 825.0 L 509.0 863.0 L 514.0 867.0 L 529.0 867.0 L 535.0 862.0 L 535.0 860.0 L 534.0 859.0 L 535.0 845.0 L 530.0 840.0 L 520.0 840.0 L 519.0 841.0 L 518.0 840.0 L 518.0 828.0 L 519.0 827.0 L 524.0 827.0 L 526.0 829.0 L 526.0 835.0 L 534.0 835.0 L 535.0 834.0 L 535.0 832.0 L 534.0 831.0 L 534.0 825.0 Z M 519.0 846.0 L 521.0 847.0 L 522.0 846.0 L 523.0 847.0 L 524.0 846.0 L 526.0 848.0 L 526.0 859.0 L 525.0 860.0 L 519.0 860.0 L 518.0 859.0 L 518.0 847.0 Z M 471.0 820.0 L 470.0 821.0 L 470.0 844.0 L 471.0 845.0 L 486.0 845.0 L 487.0 846.0 L 487.0 859.0 L 486.0 860.0 L 479.0 860.0 L 478.0 859.0 L 479.0 858.0 L 479.0 853.0 L 470.0 853.0 L 470.0 863.0 L 475.0 867.0 L 490.0 867.0 L 495.0 863.0 L 495.0 843.0 L 489.0 838.0 L 479.0 838.0 L 478.0 837.0 L 479.0 836.0 L 479.0 830.0 L 478.0 829.0 L 480.0 827.0 L 495.0 827.0 L 495.0 821.0 L 494.0 820.0 L 473.0 820.0 L 472.0 821.0 Z M 574.0 780.0 L 574.0 781.0 L 582.0 785.0 L 584.0 785.0 L 589.0 788.0 L 591.0 788.0 L 614.0 799.0 L 616.0 799.0 L 617.0 798.0 L 617.0 796.0 L 613.0 789.0 L 614.0 787.0 L 920.0 787.0 L 920.0 785.0 L 916.0 777.0 L 916.0 775.0 L 613.0 775.0 L 612.0 773.0 L 617.0 764.0 L 617.0 762.0 L 616.0 761.0 L 614.0 761.0 L 607.0 765.0 L 605.0 765.0 Z M 1041.0 615.0 L 1035.0 614.0 L 1034.0 613.0 L 1029.0 613.0 L 1024.0 615.0 L 1020.0 619.0 L 1020.0 622.0 L 1019.0 623.0 L 1020.0 625.0 L 1020.0 629.0 L 1022.0 633.0 L 1021.0 637.0 L 1017.0 640.0 L 1012.0 640.0 L 1003.0 645.0 L 999.0 646.0 L 985.0 656.0 L 985.0 663.0 L 986.0 664.0 L 988.0 672.0 L 994.0 682.0 L 994.0 687.0 L 993.0 688.0 L 995.0 691.0 L 1001.0 692.0 L 1002.0 693.0 L 999.0 697.0 L 997.0 702.0 L 998.0 710.0 L 993.0 717.0 L 993.0 719.0 L 991.0 723.0 L 991.0 729.0 L 989.0 733.0 L 987.0 735.0 L 984.0 735.0 L 983.0 734.0 L 974.0 734.0 L 959.0 740.0 L 953.0 740.0 L 946.0 734.0 L 943.0 734.0 L 941.0 735.0 L 939.0 739.0 L 938.0 746.0 L 934.0 750.0 L 933.0 755.0 L 932.0 756.0 L 932.0 764.0 L 935.0 766.0 L 937.0 765.0 L 939.0 760.0 L 944.0 755.0 L 951.0 753.0 L 953.0 748.0 L 957.0 748.0 L 958.0 747.0 L 970.0 748.0 L 971.0 749.0 L 982.0 749.0 L 983.0 748.0 L 985.0 748.0 L 988.0 750.0 L 994.0 750.0 L 1003.0 741.0 L 1015.0 723.0 L 1017.0 722.0 L 1024.0 730.0 L 1032.0 733.0 L 1037.0 738.0 L 1037.0 740.0 L 1036.0 741.0 L 1036.0 746.0 L 1035.0 747.0 L 1035.0 752.0 L 1036.0 753.0 L 1037.0 759.0 L 1039.0 762.0 L 1040.0 771.0 L 1041.0 772.0 L 1041.0 781.0 L 1039.0 784.0 L 1039.0 790.0 L 1038.0 791.0 L 1035.0 791.0 L 1034.0 790.0 L 1018.0 790.0 L 1017.0 789.0 L 992.0 789.0 L 991.0 790.0 L 962.0 790.0 L 961.0 791.0 L 946.0 791.0 L 945.0 792.0 L 941.0 792.0 L 941.0 793.0 L 949.0 793.0 L 950.0 794.0 L 965.0 794.0 L 966.0 795.0 L 985.0 795.0 L 986.0 796.0 L 1048.0 796.0 L 1049.0 795.0 L 1063.0 795.0 L 1064.0 794.0 L 1066.0 794.0 L 1071.0 789.0 L 1071.0 787.0 L 1070.0 786.0 L 1061.0 786.0 L 1057.0 784.0 L 1054.0 780.0 L 1052.0 780.0 L 1051.0 779.0 L 1050.0 780.0 L 1048.0 777.0 L 1048.0 764.0 L 1049.0 763.0 L 1049.0 739.0 L 1050.0 738.0 L 1050.0 732.0 L 1046.0 725.0 L 1043.0 722.0 L 1042.0 720.0 L 1043.0 718.0 L 1041.0 714.0 L 1027.0 699.0 L 1027.0 697.0 L 1030.0 690.0 L 1030.0 685.0 L 1031.0 684.0 L 1034.0 686.0 L 1036.0 686.0 L 1047.0 680.0 L 1054.0 673.0 L 1057.0 673.0 L 1061.0 670.0 L 1061.0 664.0 L 1058.0 661.0 L 1055.0 660.0 L 1051.0 663.0 L 1050.0 668.0 L 1048.0 670.0 L 1043.0 672.0 L 1039.0 672.0 L 1038.0 673.0 L 1037.0 672.0 L 1038.0 663.0 L 1039.0 662.0 L 1039.0 654.0 L 1037.0 649.0 L 1032.0 644.0 L 1035.0 641.0 L 1040.0 641.0 L 1041.0 640.0 L 1041.0 637.0 L 1043.0 633.0 L 1043.0 630.0 L 1042.0 629.0 L 1042.0 620.0 L 1043.0 619.0 L 1043.0 617.0 Z M 1007.0 657.0 L 1008.0 658.0 L 1008.0 667.0 L 1007.0 668.0 L 1007.0 683.0 L 1006.0 684.0 L 1000.0 681.0 L 998.0 679.0 L 997.0 668.0 L 996.0 667.0 L 996.0 660.0 L 997.0 659.0 L 1001.0 659.0 L 1002.0 658.0 Z M 194.0 539.0 L 176.0 575.0 L 176.0 577.0 L 178.0 579.0 L 179.0 578.0 L 181.0 578.0 L 188.0 573.0 L 190.0 574.0 L 189.0 575.0 L 189.0 762.0 L 190.0 763.0 L 190.0 767.0 L 193.0 774.0 L 200.0 782.0 L 208.0 786.0 L 211.0 786.0 L 212.0 787.0 L 573.0 787.0 L 573.0 786.0 L 569.0 782.0 L 569.0 779.0 L 572.0 775.0 L 214.0 775.0 L 213.0 774.0 L 211.0 774.0 L 205.0 769.0 L 202.0 763.0 L 202.0 574.0 L 204.0 573.0 L 210.0 578.0 L 214.0 578.0 L 214.0 574.0 L 203.0 553.0 L 203.0 551.0 L 197.0 539.0 Z M 223.0 444.0 L 223.0 447.0 L 224.0 448.0 L 230.0 448.0 L 231.0 449.0 L 236.0 449.0 L 237.0 450.0 L 243.0 450.0 L 244.0 451.0 L 249.0 451.0 L 250.0 452.0 L 256.0 452.0 L 257.0 453.0 L 262.0 453.0 L 263.0 454.0 L 268.0 454.0 L 269.0 455.0 L 289.0 457.0 L 290.0 458.0 L 295.0 458.0 L 296.0 459.0 L 302.0 459.0 L 303.0 460.0 L 308.0 460.0 L 309.0 461.0 L 314.0 461.0 L 315.0 462.0 L 321.0 462.0 L 322.0 463.0 L 327.0 463.0 L 328.0 464.0 L 333.0 464.0 L 334.0 465.0 L 340.0 465.0 L 341.0 466.0 L 347.0 466.0 L 348.0 467.0 L 354.0 467.0 L 355.0 468.0 L 361.0 468.0 L 362.0 469.0 L 374.0 470.0 L 375.0 471.0 L 382.0 471.0 L 383.0 470.0 L 383.0 469.0 L 381.0 469.0 L 380.0 468.0 L 374.0 468.0 L 373.0 467.0 L 369.0 467.0 L 368.0 466.0 L 362.0 466.0 L 361.0 465.0 L 356.0 465.0 L 355.0 464.0 L 350.0 464.0 L 349.0 463.0 L 344.0 463.0 L 343.0 462.0 L 338.0 462.0 L 337.0 461.0 L 331.0 461.0 L 330.0 460.0 L 318.0 459.0 L 317.0 458.0 L 312.0 458.0 L 311.0 457.0 L 306.0 457.0 L 305.0 456.0 L 299.0 456.0 L 298.0 455.0 L 293.0 455.0 L 292.0 454.0 L 287.0 454.0 L 286.0 453.0 L 280.0 453.0 L 279.0 452.0 L 274.0 452.0 L 273.0 451.0 L 267.0 451.0 L 266.0 450.0 L 260.0 450.0 L 259.0 449.0 L 254.0 449.0 L 253.0 448.0 L 248.0 448.0 L 247.0 447.0 L 241.0 447.0 L 240.0 446.0 L 234.0 446.0 L 233.0 445.0 Z M 1027.0 487.0 L 905.0 487.0 L 904.0 486.0 L 904.0 464.0 L 906.0 462.0 L 902.0 458.0 L 903.0 455.0 L 902.0 453.0 L 900.0 452.0 L 896.0 454.0 L 896.0 458.0 L 895.0 459.0 L 893.0 458.0 L 893.0 428.0 L 885.0 428.0 L 884.0 427.0 L 883.0 428.0 L 811.0 428.0 L 810.0 429.0 L 810.0 537.0 L 809.0 538.0 L 806.0 534.0 L 808.0 532.0 L 802.0 525.0 L 800.0 525.0 L 797.0 528.0 L 794.0 528.0 L 793.0 527.0 L 796.0 523.0 L 795.0 521.0 L 796.0 520.0 L 796.0 516.0 L 795.0 515.0 L 792.0 515.0 L 791.0 514.0 L 791.0 511.0 L 789.0 509.0 L 786.0 509.0 L 782.0 514.0 L 781.0 513.0 L 782.0 509.0 L 780.0 505.0 L 777.0 503.0 L 774.0 503.0 L 770.0 508.0 L 765.0 507.0 L 763.0 509.0 L 763.0 514.0 L 768.0 521.0 L 767.0 522.0 L 765.0 522.0 L 761.0 517.0 L 758.0 518.0 L 756.0 516.0 L 753.0 516.0 L 751.0 518.0 L 752.0 520.0 L 751.0 521.0 L 749.0 521.0 L 746.0 525.0 L 747.0 527.0 L 750.0 529.0 L 748.0 531.0 L 748.0 533.0 L 749.0 534.0 L 751.0 534.0 L 752.0 536.0 L 755.0 536.0 L 756.0 537.0 L 755.0 538.0 L 755.0 540.0 L 754.0 541.0 L 752.0 539.0 L 749.0 539.0 L 748.0 540.0 L 745.0 537.0 L 742.0 537.0 L 740.0 539.0 L 741.0 541.0 L 740.0 542.0 L 738.0 542.0 L 736.0 544.0 L 736.0 548.0 L 738.0 549.0 L 733.0 553.0 L 734.0 556.0 L 735.0 557.0 L 737.0 557.0 L 738.0 558.0 L 738.0 560.0 L 740.0 562.0 L 742.0 562.0 L 745.0 559.0 L 746.0 560.0 L 745.0 564.0 L 749.0 567.0 L 746.0 569.0 L 742.0 566.0 L 739.0 566.0 L 737.0 568.0 L 736.0 567.0 L 733.0 567.0 L 731.0 569.0 L 731.0 573.0 L 732.0 574.0 L 728.0 576.0 L 728.0 580.0 L 730.0 582.0 L 727.0 586.0 L 728.0 589.0 L 729.0 590.0 L 732.0 590.0 L 734.0 594.0 L 736.0 594.0 L 739.0 591.0 L 742.0 594.0 L 741.0 595.0 L 739.0 595.0 L 739.0 596.0 L 734.0 600.0 L 734.0 603.0 L 735.0 604.0 L 737.0 604.0 L 738.0 605.0 L 738.0 607.0 L 741.0 610.0 L 746.0 607.0 L 750.0 607.0 L 751.0 608.0 L 749.0 610.0 L 748.0 613.0 L 750.0 615.0 L 753.0 615.0 L 756.0 618.0 L 759.0 618.0 L 762.0 615.0 L 764.0 615.0 L 767.0 610.0 L 770.0 613.0 L 773.0 620.0 L 775.0 622.0 L 775.0 650.0 L 774.0 651.0 L 772.0 651.0 L 769.0 653.0 L 768.0 652.0 L 769.0 651.0 L 763.0 647.0 L 764.0 645.0 L 761.0 641.0 L 757.0 641.0 L 756.0 642.0 L 754.0 641.0 L 755.0 640.0 L 755.0 635.0 L 753.0 634.0 L 749.0 634.0 L 748.0 632.0 L 745.0 630.0 L 740.0 634.0 L 736.0 634.0 L 733.0 638.0 L 734.0 639.0 L 734.0 641.0 L 736.0 643.0 L 735.0 644.0 L 732.0 643.0 L 729.0 640.0 L 727.0 640.0 L 725.0 642.0 L 725.0 644.0 L 721.0 647.0 L 721.0 649.0 L 718.0 651.0 L 717.0 650.0 L 717.0 640.0 L 718.0 639.0 L 718.0 637.0 L 714.0 633.0 L 714.0 608.0 L 715.0 606.0 L 713.0 601.0 L 713.0 561.0 L 716.0 557.0 L 714.0 554.0 L 714.0 533.0 L 719.0 527.0 L 732.0 523.0 L 733.0 522.0 L 732.0 521.0 L 723.0 521.0 L 722.0 520.0 L 708.0 519.0 L 707.0 518.0 L 693.0 517.0 L 692.0 516.0 L 685.0 516.0 L 684.0 515.0 L 676.0 515.0 L 675.0 514.0 L 582.0 514.0 L 581.0 515.0 L 572.0 515.0 L 571.0 516.0 L 564.0 516.0 L 563.0 517.0 L 557.0 517.0 L 556.0 518.0 L 549.0 518.0 L 548.0 519.0 L 541.0 519.0 L 540.0 520.0 L 533.0 520.0 L 532.0 521.0 L 520.0 522.0 L 521.0 523.0 L 527.0 524.0 L 535.0 527.0 L 538.0 529.0 L 541.0 533.0 L 541.0 554.0 L 539.0 557.0 L 542.0 561.0 L 542.0 602.0 L 540.0 605.0 L 540.0 607.0 L 541.0 608.0 L 541.0 633.0 L 537.0 636.0 L 538.0 643.0 L 533.0 647.0 L 528.0 644.0 L 529.0 639.0 L 527.0 637.0 L 525.0 637.0 L 522.0 633.0 L 519.0 633.0 L 518.0 632.0 L 518.0 629.0 L 515.0 626.0 L 510.0 627.0 L 509.0 626.0 L 509.0 624.0 L 506.0 621.0 L 502.0 621.0 L 500.0 622.0 L 497.0 626.0 L 492.0 626.0 L 490.0 628.0 L 489.0 632.0 L 492.0 636.0 L 491.0 638.0 L 486.0 634.0 L 484.0 634.0 L 481.0 638.0 L 477.0 641.0 L 477.0 643.0 L 480.0 646.0 L 480.0 647.0 L 477.0 649.0 L 475.0 646.0 L 470.0 647.0 L 468.0 645.0 L 465.0 645.0 L 464.0 646.0 L 463.0 645.0 L 463.0 635.0 L 462.0 634.0 L 462.0 608.0 L 469.0 597.0 L 475.0 590.0 L 477.0 591.0 L 476.0 592.0 L 476.0 596.0 L 478.0 598.0 L 482.0 597.0 L 485.0 600.0 L 488.0 601.0 L 491.0 597.0 L 495.0 597.0 L 497.0 595.0 L 496.0 592.0 L 492.0 588.0 L 493.0 586.0 L 495.0 586.0 L 496.0 588.0 L 500.0 591.0 L 502.0 591.0 L 504.0 589.0 L 506.0 589.0 L 507.0 590.0 L 511.0 589.0 L 512.0 587.0 L 512.0 585.0 L 511.0 584.0 L 512.0 583.0 L 516.0 583.0 L 518.0 581.0 L 518.0 578.0 L 515.0 575.0 L 517.0 573.0 L 517.0 571.0 L 515.0 569.0 L 513.0 569.0 L 512.0 568.0 L 512.0 566.0 L 510.0 564.0 L 508.0 564.0 L 506.0 566.0 L 504.0 563.0 L 505.0 562.0 L 508.0 562.0 L 510.0 560.0 L 513.0 562.0 L 515.0 562.0 L 517.0 560.0 L 521.0 559.0 L 522.0 556.0 L 520.0 553.0 L 523.0 551.0 L 525.0 548.0 L 523.0 544.0 L 520.0 544.0 L 519.0 543.0 L 521.0 540.0 L 520.0 537.0 L 519.0 536.0 L 515.0 536.0 L 514.0 534.0 L 512.0 533.0 L 508.0 536.0 L 507.0 535.0 L 503.0 536.0 L 501.0 539.0 L 500.0 538.0 L 499.0 539.0 L 497.0 538.0 L 501.0 534.0 L 501.0 531.0 L 502.0 530.0 L 504.0 532.0 L 506.0 532.0 L 509.0 529.0 L 508.0 527.0 L 509.0 526.0 L 511.0 527.0 L 513.0 527.0 L 514.0 526.0 L 515.0 522.0 L 512.0 519.0 L 514.0 518.0 L 515.0 513.0 L 512.0 511.0 L 511.0 512.0 L 510.0 511.0 L 512.0 508.0 L 512.0 506.0 L 510.0 504.0 L 508.0 504.0 L 507.0 503.0 L 508.0 502.0 L 506.0 500.0 L 503.0 500.0 L 501.0 502.0 L 497.0 500.0 L 495.0 501.0 L 493.0 504.0 L 491.0 504.0 L 488.0 506.0 L 487.0 505.0 L 487.0 504.0 L 489.0 503.0 L 491.0 498.0 L 493.0 499.0 L 496.0 497.0 L 496.0 493.0 L 495.0 492.0 L 498.0 490.0 L 498.0 486.0 L 494.0 483.0 L 496.0 481.0 L 495.0 477.0 L 491.0 475.0 L 492.0 473.0 L 489.0 470.0 L 486.0 471.0 L 484.0 474.0 L 481.0 471.0 L 478.0 472.0 L 477.0 477.0 L 476.0 478.0 L 474.0 476.0 L 470.0 476.0 L 469.0 475.0 L 473.0 471.0 L 473.0 468.0 L 472.0 467.0 L 474.0 464.0 L 473.0 462.0 L 469.0 460.0 L 469.0 457.0 L 468.0 456.0 L 463.0 457.0 L 461.0 460.0 L 460.0 459.0 L 460.0 455.0 L 459.0 453.0 L 457.0 452.0 L 453.0 452.0 L 449.0 457.0 L 445.0 456.0 L 443.0 457.0 L 441.0 460.0 L 441.0 463.0 L 443.0 467.0 L 446.0 469.0 L 445.0 470.0 L 440.0 470.0 L 436.0 466.0 L 433.0 467.0 L 433.0 469.0 L 432.0 470.0 L 430.0 469.0 L 428.0 471.0 L 428.0 473.0 L 429.0 474.0 L 428.0 475.0 L 426.0 475.0 L 424.0 477.0 L 424.0 480.0 L 426.0 482.0 L 426.0 484.0 L 425.0 485.0 L 426.0 487.0 L 431.0 489.0 L 430.0 493.0 L 429.0 494.0 L 428.0 492.0 L 423.0 492.0 L 421.0 488.0 L 418.0 488.0 L 414.0 493.0 L 412.0 491.0 L 410.0 491.0 L 407.0 494.0 L 407.0 496.0 L 409.0 499.0 L 408.0 500.0 L 405.0 500.0 L 403.0 503.0 L 403.0 505.0 L 408.0 509.0 L 404.0 512.0 L 404.0 515.0 L 407.0 518.0 L 412.0 518.0 L 413.0 517.0 L 414.0 518.0 L 414.0 522.0 L 416.0 524.0 L 421.0 524.0 L 423.0 525.0 L 427.0 522.0 L 428.0 523.0 L 427.0 526.0 L 428.0 528.0 L 431.0 530.0 L 430.0 531.0 L 425.0 532.0 L 421.0 527.0 L 414.0 527.0 L 413.0 528.0 L 411.0 525.0 L 409.0 524.0 L 407.0 524.0 L 406.0 525.0 L 403.0 522.0 L 401.0 522.0 L 398.0 525.0 L 399.0 528.0 L 398.0 529.0 L 397.0 528.0 L 394.0 528.0 L 392.0 530.0 L 392.0 534.0 L 389.0 537.0 L 389.0 540.0 L 393.0 543.0 L 390.0 546.0 L 390.0 549.0 L 391.0 550.0 L 394.0 550.0 L 395.0 551.0 L 395.0 553.0 L 398.0 555.0 L 402.0 552.0 L 406.0 555.0 L 406.0 556.0 L 402.0 560.0 L 397.0 558.0 L 395.0 561.0 L 391.0 563.0 L 389.0 566.0 L 391.0 569.0 L 388.0 572.0 L 388.0 574.0 L 390.0 576.0 L 393.0 576.0 L 394.0 577.0 L 392.0 580.0 L 393.0 582.0 L 395.0 583.0 L 399.0 582.0 L 400.0 583.0 L 399.0 584.0 L 399.0 587.0 L 401.0 589.0 L 404.0 589.0 L 407.0 586.0 L 408.0 588.0 L 411.0 589.0 L 413.0 588.0 L 415.0 583.0 L 418.0 586.0 L 414.0 590.0 L 413.0 597.0 L 414.0 598.0 L 417.0 598.0 L 418.0 597.0 L 419.0 598.0 L 419.0 600.0 L 421.0 602.0 L 424.0 602.0 L 427.0 598.0 L 430.0 601.0 L 432.0 601.0 L 434.0 600.0 L 436.0 597.0 L 439.0 597.0 L 441.0 595.0 L 441.0 593.0 L 442.0 592.0 L 446.0 596.0 L 453.0 606.0 L 452.0 645.0 L 451.0 646.0 L 450.0 645.0 L 446.0 645.0 L 440.0 650.0 L 436.0 650.0 L 435.0 649.0 L 437.0 648.0 L 441.0 643.0 L 440.0 638.0 L 435.0 637.0 L 434.0 636.0 L 435.0 632.0 L 434.0 630.0 L 432.0 629.0 L 429.0 629.0 L 427.0 631.0 L 425.0 631.0 L 424.0 630.0 L 422.0 631.0 L 421.0 630.0 L 422.0 628.0 L 422.0 624.0 L 420.0 622.0 L 417.0 622.0 L 415.0 624.0 L 414.0 623.0 L 414.0 619.0 L 411.0 616.0 L 409.0 616.0 L 405.0 619.0 L 401.0 618.0 L 398.0 620.0 L 398.0 622.0 L 397.0 623.0 L 395.0 622.0 L 391.0 625.0 L 391.0 630.0 L 392.0 631.0 L 392.0 633.0 L 391.0 634.0 L 387.0 633.0 L 384.0 636.0 L 384.0 639.0 L 383.0 640.0 L 382.0 639.0 L 382.0 622.0 L 383.0 621.0 L 383.0 618.0 L 382.0 617.0 L 382.0 597.0 L 381.0 596.0 L 381.0 594.0 L 382.0 593.0 L 380.0 592.0 L 356.0 592.0 L 355.0 591.0 L 334.0 591.0 L 333.0 590.0 L 310.0 590.0 L 309.0 589.0 L 289.0 589.0 L 288.0 588.0 L 265.0 588.0 L 264.0 587.0 L 228.0 586.0 L 227.0 585.0 L 227.0 580.0 L 228.0 579.0 L 234.0 579.0 L 235.0 580.0 L 253.0 580.0 L 254.0 581.0 L 265.0 581.0 L 266.0 580.0 L 270.0 582.0 L 289.0 582.0 L 290.0 583.0 L 308.0 583.0 L 309.0 584.0 L 328.0 584.0 L 329.0 585.0 L 349.0 585.0 L 350.0 586.0 L 372.0 586.0 L 373.0 587.0 L 381.0 587.0 L 382.0 586.0 L 382.0 482.0 L 381.0 481.0 L 381.0 475.0 L 376.0 475.0 L 375.0 474.0 L 370.0 474.0 L 369.0 473.0 L 362.0 473.0 L 361.0 472.0 L 356.0 472.0 L 355.0 471.0 L 350.0 471.0 L 349.0 470.0 L 343.0 470.0 L 342.0 469.0 L 337.0 469.0 L 336.0 468.0 L 331.0 468.0 L 330.0 467.0 L 323.0 467.0 L 322.0 466.0 L 310.0 465.0 L 309.0 464.0 L 303.0 464.0 L 302.0 463.0 L 297.0 463.0 L 296.0 462.0 L 291.0 462.0 L 290.0 461.0 L 284.0 461.0 L 283.0 460.0 L 278.0 460.0 L 277.0 459.0 L 271.0 459.0 L 270.0 458.0 L 250.0 456.0 L 249.0 455.0 L 244.0 455.0 L 243.0 454.0 L 236.0 454.0 L 235.0 453.0 L 230.0 453.0 L 229.0 452.0 L 223.0 452.0 L 223.0 681.0 L 231.0 681.0 L 232.0 682.0 L 246.0 682.0 L 247.0 681.0 L 255.0 681.0 L 256.0 682.0 L 288.0 682.0 L 289.0 681.0 L 304.0 681.0 L 305.0 682.0 L 306.0 681.0 L 310.0 681.0 L 311.0 682.0 L 341.0 682.0 L 342.0 681.0 L 355.0 681.0 L 356.0 682.0 L 357.0 681.0 L 358.0 682.0 L 387.0 682.0 L 388.0 681.0 L 394.0 681.0 L 395.0 682.0 L 417.0 682.0 L 418.0 681.0 L 424.0 681.0 L 425.0 682.0 L 432.0 682.0 L 433.0 681.0 L 451.0 681.0 L 452.0 682.0 L 454.0 682.0 L 455.0 681.0 L 475.0 681.0 L 476.0 682.0 L 481.0 682.0 L 482.0 681.0 L 506.0 681.0 L 507.0 682.0 L 509.0 682.0 L 510.0 681.0 L 538.0 681.0 L 539.0 682.0 L 545.0 682.0 L 546.0 681.0 L 554.0 681.0 L 555.0 682.0 L 573.0 682.0 L 574.0 681.0 L 583.0 681.0 L 584.0 682.0 L 596.0 682.0 L 597.0 681.0 L 622.0 681.0 L 623.0 682.0 L 631.0 682.0 L 632.0 681.0 L 651.0 681.0 L 652.0 682.0 L 674.0 682.0 L 675.0 681.0 L 685.0 681.0 L 686.0 682.0 L 698.0 682.0 L 699.0 681.0 L 703.0 681.0 L 704.0 682.0 L 717.0 682.0 L 718.0 681.0 L 720.0 682.0 L 722.0 682.0 L 723.0 681.0 L 725.0 682.0 L 739.0 682.0 L 740.0 681.0 L 760.0 681.0 L 761.0 682.0 L 771.0 682.0 L 772.0 681.0 L 845.0 681.0 L 846.0 682.0 L 849.0 682.0 L 850.0 681.0 L 872.0 681.0 L 873.0 682.0 L 883.0 682.0 L 884.0 681.0 L 902.0 681.0 L 904.0 682.0 L 905.0 681.0 L 912.0 681.0 L 913.0 682.0 L 949.0 682.0 L 950.0 681.0 L 957.0 681.0 L 958.0 682.0 L 966.0 682.0 L 967.0 681.0 L 976.0 681.0 L 971.0 668.0 L 947.0 666.0 L 945.0 664.0 L 945.0 658.0 L 947.0 656.0 L 970.0 656.0 L 970.0 654.0 L 947.0 654.0 L 945.0 652.0 L 946.0 651.0 L 945.0 650.0 L 945.0 648.0 L 946.0 647.0 L 945.0 646.0 L 945.0 631.0 L 947.0 629.0 L 949.0 630.0 L 949.0 650.0 L 950.0 651.0 L 972.0 651.0 L 978.0 645.0 L 978.0 633.0 L 980.0 629.0 L 982.0 630.0 L 982.0 641.0 L 1001.0 629.0 L 1001.0 617.0 L 985.0 618.0 L 983.0 616.0 L 985.0 612.0 L 985.0 609.0 L 986.0 608.0 L 986.0 605.0 L 988.0 601.0 L 989.0 595.0 L 990.0 594.0 L 1027.0 594.0 L 1027.0 583.0 L 903.0 583.0 L 902.0 582.0 L 902.0 580.0 L 903.0 579.0 L 1027.0 579.0 L 1027.0 503.0 L 905.0 503.0 L 903.0 500.0 L 905.0 498.0 L 1027.0 498.0 Z M 587.0 662.0 L 588.0 661.0 L 670.0 661.0 L 671.0 662.0 L 671.0 666.0 L 670.0 667.0 L 588.0 667.0 L 587.0 666.0 Z M 905.0 658.0 L 907.0 656.0 L 940.0 656.0 L 941.0 657.0 L 941.0 664.0 L 940.0 665.0 L 935.0 665.0 L 934.0 664.0 L 923.0 664.0 L 922.0 663.0 L 906.0 662.0 L 905.0 661.0 Z M 320.0 659.0 L 320.0 656.0 L 321.0 655.0 L 339.0 655.0 L 340.0 656.0 L 337.0 658.0 L 333.0 658.0 L 332.0 659.0 L 326.0 659.0 L 325.0 660.0 L 321.0 660.0 Z M 285.0 657.0 L 286.0 656.0 L 295.0 656.0 L 296.0 655.0 L 300.0 655.0 L 301.0 656.0 L 305.0 656.0 L 306.0 655.0 L 307.0 656.0 L 307.0 660.0 L 306.0 661.0 L 302.0 661.0 L 301.0 662.0 L 286.0 663.0 L 285.0 662.0 Z M 592.0 654.0 L 593.0 653.0 L 666.0 653.0 L 667.0 654.0 L 667.0 656.0 L 665.0 658.0 L 593.0 658.0 L 592.0 657.0 Z M 285.0 652.0 L 286.0 651.0 L 306.0 651.0 L 307.0 653.0 L 306.0 654.0 L 287.0 654.0 Z M 595.0 645.0 L 596.0 644.0 L 661.0 644.0 L 662.0 645.0 L 662.0 648.0 L 661.0 649.0 L 597.0 649.0 L 595.0 647.0 Z M 366.0 637.0 L 367.0 638.0 L 367.0 650.0 L 366.0 651.0 L 353.0 652.0 L 352.0 651.0 L 352.0 645.0 L 354.0 643.0 L 358.0 642.0 Z M 669.0 637.0 L 670.0 636.0 L 702.0 637.0 L 703.0 638.0 L 708.0 638.0 L 709.0 640.0 L 708.0 641.0 L 670.0 640.0 L 669.0 639.0 Z M 588.0 638.0 L 586.0 640.0 L 567.0 640.0 L 566.0 641.0 L 548.0 641.0 L 547.0 640.0 L 548.0 638.0 L 552.0 638.0 L 553.0 637.0 L 572.0 637.0 L 573.0 636.0 L 586.0 636.0 Z M 599.0 636.0 L 600.0 635.0 L 657.0 635.0 L 658.0 636.0 L 658.0 639.0 L 657.0 640.0 L 600.0 640.0 L 599.0 639.0 Z M 370.0 630.0 L 371.0 631.0 L 371.0 653.0 L 367.0 655.0 L 353.0 656.0 L 352.0 655.0 L 355.0 653.0 L 363.0 653.0 L 364.0 652.0 L 368.0 652.0 L 368.0 631.0 Z M 345.0 630.0 L 347.0 630.0 L 349.0 632.0 L 349.0 656.0 L 348.0 657.0 L 345.0 657.0 L 344.0 656.0 L 344.0 631.0 Z M 339.0 630.0 L 340.0 631.0 L 340.0 653.0 L 339.0 654.0 L 321.0 654.0 L 320.0 653.0 L 321.0 651.0 L 338.0 651.0 L 338.0 631.0 Z M 312.0 630.0 L 314.0 630.0 L 315.0 631.0 L 315.0 660.0 L 314.0 661.0 L 311.0 661.0 L 310.0 660.0 L 310.0 632.0 Z M 905.0 631.0 L 907.0 629.0 L 910.0 631.0 L 910.0 651.0 L 937.0 651.0 L 938.0 650.0 L 938.0 630.0 L 940.0 629.0 L 941.0 630.0 L 941.0 653.0 L 940.0 654.0 L 907.0 654.0 L 905.0 652.0 Z M 791.0 612.0 L 792.0 613.0 L 792.0 615.0 L 794.0 617.0 L 798.0 617.0 L 800.0 614.0 L 802.0 616.0 L 805.0 617.0 L 807.0 616.0 L 809.0 612.0 L 810.0 613.0 L 810.0 619.0 L 809.0 620.0 L 808.0 619.0 L 805.0 619.0 L 803.0 623.0 L 802.0 622.0 L 799.0 622.0 L 798.0 627.0 L 794.0 630.0 L 794.0 632.0 L 796.0 634.0 L 795.0 639.0 L 797.0 641.0 L 799.0 641.0 L 800.0 640.0 L 802.0 644.0 L 806.0 644.0 L 808.0 642.0 L 809.0 643.0 L 809.0 654.0 L 808.0 655.0 L 806.0 655.0 L 803.0 652.0 L 799.0 652.0 L 797.0 649.0 L 793.0 649.0 L 791.0 651.0 L 789.0 649.0 L 787.0 649.0 L 784.0 653.0 L 783.0 652.0 L 783.0 622.0 L 787.0 616.0 Z M 705.0 611.0 L 707.0 612.0 L 707.0 630.0 L 706.0 631.0 L 704.0 629.0 L 704.0 612.0 Z M 699.0 611.0 L 701.0 612.0 L 701.0 629.0 L 700.0 630.0 L 698.0 629.0 L 698.0 612.0 Z M 693.0 611.0 L 695.0 611.0 L 696.0 612.0 L 696.0 620.0 L 695.0 621.0 L 696.0 622.0 L 696.0 629.0 L 695.0 630.0 L 693.0 630.0 L 692.0 629.0 L 692.0 612.0 Z M 687.0 611.0 L 689.0 611.0 L 690.0 612.0 L 690.0 629.0 L 689.0 630.0 L 687.0 630.0 L 686.0 629.0 L 686.0 612.0 Z M 681.0 611.0 L 683.0 611.0 L 684.0 612.0 L 684.0 629.0 L 683.0 630.0 L 680.0 628.0 L 680.0 612.0 Z M 675.0 611.0 L 677.0 611.0 L 678.0 612.0 L 678.0 629.0 L 677.0 630.0 L 674.0 628.0 L 674.0 612.0 Z M 669.0 611.0 L 671.0 611.0 L 672.0 612.0 L 672.0 628.0 L 670.0 630.0 L 668.0 628.0 L 668.0 612.0 Z M 650.0 611.0 L 652.0 611.0 L 653.0 612.0 L 653.0 629.0 L 652.0 630.0 L 650.0 630.0 L 649.0 629.0 L 649.0 612.0 Z M 643.0 611.0 L 645.0 611.0 L 646.0 612.0 L 646.0 620.0 L 647.0 621.0 L 646.0 623.0 L 646.0 627.0 L 647.0 628.0 L 645.0 630.0 L 643.0 630.0 L 642.0 629.0 L 642.0 612.0 Z M 636.0 611.0 L 639.0 611.0 L 640.0 612.0 L 639.0 613.0 L 639.0 624.0 L 640.0 625.0 L 640.0 628.0 L 638.0 630.0 L 636.0 630.0 L 635.0 629.0 L 635.0 612.0 Z M 629.0 611.0 L 632.0 611.0 L 633.0 612.0 L 633.0 629.0 L 632.0 630.0 L 630.0 630.0 L 629.0 629.0 L 629.0 618.0 L 628.0 617.0 L 628.0 612.0 Z M 623.0 611.0 L 625.0 611.0 L 626.0 612.0 L 626.0 629.0 L 625.0 630.0 L 623.0 630.0 L 622.0 629.0 L 622.0 612.0 Z M 616.0 611.0 L 619.0 611.0 L 620.0 612.0 L 620.0 629.0 L 619.0 630.0 L 617.0 630.0 L 615.0 628.0 L 615.0 612.0 Z M 610.0 611.0 L 612.0 611.0 L 613.0 612.0 L 613.0 629.0 L 612.0 630.0 L 610.0 630.0 L 609.0 629.0 L 609.0 612.0 Z M 603.0 611.0 L 605.0 611.0 L 606.0 612.0 L 606.0 629.0 L 605.0 630.0 L 603.0 630.0 L 602.0 629.0 L 602.0 612.0 Z M 585.0 611.0 L 587.0 611.0 L 588.0 612.0 L 588.0 629.0 L 587.0 630.0 L 585.0 630.0 L 584.0 629.0 L 584.0 612.0 Z M 579.0 611.0 L 581.0 611.0 L 582.0 612.0 L 582.0 626.0 L 581.0 627.0 L 582.0 629.0 L 581.0 630.0 L 579.0 630.0 L 578.0 629.0 L 578.0 612.0 Z M 573.0 611.0 L 575.0 612.0 L 575.0 629.0 L 574.0 630.0 L 572.0 629.0 L 572.0 612.0 Z M 567.0 611.0 L 569.0 612.0 L 569.0 629.0 L 568.0 630.0 L 566.0 629.0 L 566.0 612.0 Z M 561.0 611.0 L 563.0 612.0 L 563.0 629.0 L 562.0 630.0 L 560.0 629.0 L 560.0 612.0 Z M 555.0 611.0 L 557.0 612.0 L 557.0 615.0 L 558.0 616.0 L 558.0 622.0 L 557.0 623.0 L 557.0 629.0 L 556.0 630.0 L 554.0 629.0 L 554.0 612.0 Z M 549.0 611.0 L 551.0 612.0 L 551.0 629.0 L 550.0 630.0 L 548.0 629.0 L 548.0 612.0 Z M 784.0 604.0 L 787.0 610.0 L 783.0 615.0 L 782.0 614.0 L 782.0 605.0 Z M 774.0 604.0 L 775.0 605.0 L 775.0 612.0 L 774.0 613.0 L 770.0 608.0 L 773.0 606.0 Z M 357.0 603.0 L 358.0 602.0 L 364.0 602.0 L 366.0 603.0 L 379.0 620.0 L 378.0 621.0 L 370.0 621.0 Z M 344.0 603.0 L 345.0 602.0 L 354.0 602.0 L 357.0 605.0 L 367.0 620.0 L 364.0 622.0 L 362.0 621.0 L 357.0 622.0 L 349.0 610.0 L 346.0 607.0 Z M 332.0 603.0 L 333.0 602.0 L 341.0 602.0 L 354.0 620.0 L 353.0 621.0 L 345.0 621.0 Z M 321.0 602.0 L 322.0 601.0 L 329.0 601.0 L 336.0 610.0 L 342.0 620.0 L 341.0 621.0 L 334.0 621.0 L 331.0 618.0 Z M 309.0 602.0 L 310.0 601.0 L 318.0 601.0 L 321.0 604.0 L 322.0 607.0 L 331.0 620.0 L 330.0 621.0 L 323.0 621.0 L 320.0 618.0 L 316.0 611.0 Z M 297.0 601.0 L 298.0 600.0 L 300.0 601.0 L 307.0 601.0 L 320.0 620.0 L 319.0 621.0 L 311.0 621.0 L 308.0 618.0 Z M 283.0 601.0 L 284.0 600.0 L 294.0 600.0 L 297.0 603.0 L 308.0 620.0 L 307.0 621.0 L 297.0 621.0 Z M 942.0 614.0 L 944.0 611.0 L 948.0 598.0 L 951.0 594.0 L 984.0 594.0 L 985.0 595.0 L 985.0 597.0 L 983.0 601.0 L 983.0 604.0 L 981.0 608.0 L 980.0 615.0 L 978.0 618.0 L 967.0 618.0 L 966.0 617.0 L 964.0 617.0 L 963.0 618.0 L 954.0 618.0 L 953.0 617.0 L 951.0 617.0 L 950.0 618.0 L 944.0 618.0 L 942.0 616.0 Z M 899.0 617.0 L 899.0 615.0 L 905.0 604.0 L 905.0 602.0 L 908.0 596.0 L 910.0 594.0 L 944.0 594.0 L 945.0 595.0 L 943.0 602.0 L 938.0 612.0 L 938.0 614.0 L 935.0 618.0 L 926.0 618.0 L 925.0 617.0 L 923.0 617.0 L 922.0 618.0 L 914.0 618.0 L 913.0 617.0 L 910.0 617.0 L 909.0 618.0 L 900.0 618.0 Z M 254.0 594.0 L 256.0 595.0 L 256.0 598.0 L 261.0 599.0 L 266.0 604.0 L 268.0 608.0 L 268.0 616.0 L 273.0 616.0 L 275.0 618.0 L 273.0 620.0 L 268.0 620.0 L 268.0 621.0 L 273.0 621.0 L 274.0 622.0 L 274.0 651.0 L 278.0 651.0 L 279.0 652.0 L 277.0 654.0 L 274.0 654.0 L 274.0 662.0 L 270.0 664.0 L 265.0 664.0 L 264.0 663.0 L 264.0 620.0 L 263.0 619.0 L 262.0 620.0 L 260.0 619.0 L 242.0 619.0 L 242.0 646.0 L 241.0 647.0 L 237.0 644.0 L 237.0 618.0 L 236.0 616.0 L 238.0 614.0 L 238.0 611.0 L 239.0 610.0 L 240.0 605.0 L 246.0 599.0 L 248.0 599.0 L 249.0 598.0 L 250.0 600.0 L 246.0 602.0 L 243.0 605.0 L 241.0 610.0 L 241.0 614.0 L 242.0 615.0 L 261.0 615.0 L 262.0 616.0 L 264.0 616.0 L 265.0 615.0 L 265.0 608.0 L 263.0 604.0 L 261.0 602.0 L 257.0 600.0 L 255.0 600.0 L 253.0 598.0 L 253.0 595.0 Z M 840.0 593.0 L 850.0 590.0 L 849.0 588.0 L 850.0 587.0 L 854.0 587.0 L 856.0 590.0 L 858.0 590.0 L 865.0 593.0 L 871.0 599.0 L 873.0 602.0 L 875.0 611.0 L 877.0 613.0 L 875.0 616.0 L 875.0 651.0 L 892.0 651.0 L 893.0 652.0 L 893.0 660.0 L 892.0 661.0 L 889.0 661.0 L 888.0 660.0 L 866.0 659.0 L 865.0 658.0 L 865.0 617.0 L 862.0 617.0 L 861.0 616.0 L 840.0 617.0 L 840.0 657.0 L 839.0 658.0 L 835.0 658.0 L 834.0 657.0 L 825.0 657.0 L 824.0 656.0 L 819.0 656.0 L 818.0 655.0 L 818.0 652.0 L 820.0 650.0 L 830.0 650.0 L 830.0 639.0 L 831.0 638.0 L 830.0 629.0 L 831.0 628.0 L 831.0 625.0 L 830.0 624.0 L 830.0 616.0 L 828.0 613.0 L 830.0 611.0 L 830.0 604.0 L 831.0 603.0 L 833.0 605.0 L 835.0 605.0 L 839.0 601.0 L 840.0 599.0 L 838.0 595.0 Z M 840.0 606.0 L 840.0 611.0 L 865.0 611.0 L 864.0 604.0 L 859.0 599.0 L 857.0 599.0 L 856.0 598.0 L 849.0 598.0 L 848.0 599.0 L 846.0 599.0 L 843.0 601.0 Z M 450.0 587.0 L 452.0 587.0 L 453.0 588.0 L 453.0 596.0 L 452.0 597.0 L 447.0 590.0 Z M 796.0 589.0 L 799.0 586.0 L 803.0 586.0 L 804.0 587.0 L 804.0 588.0 L 800.0 591.0 L 798.0 591.0 Z M 754.0 587.0 L 755.0 586.0 L 758.0 586.0 L 761.0 589.0 L 760.0 590.0 L 756.0 590.0 Z M 470.0 587.0 L 471.0 585.0 L 473.0 586.0 L 471.0 588.0 Z M 465.0 583.0 L 466.0 584.0 L 465.0 589.0 L 468.0 591.0 L 462.0 599.0 L 461.0 598.0 L 461.0 589.0 Z M 451.0 583.0 L 452.0 582.0 L 453.0 584.0 L 452.0 585.0 Z M 790.0 573.0 L 791.0 574.0 L 789.0 576.0 L 789.0 578.0 L 785.0 581.0 L 784.0 580.0 L 786.0 576.0 Z M 773.0 571.0 L 775.0 573.0 L 775.0 582.0 L 774.0 583.0 L 766.0 575.0 L 768.0 574.0 L 772.0 577.0 L 772.0 572.0 Z M 808.0 570.0 L 809.0 569.0 L 810.0 571.0 L 809.0 572.0 Z M 421.0 567.0 L 422.0 569.0 L 420.0 570.0 L 419.0 569.0 Z M 660.0 564.0 L 662.0 565.0 L 662.0 601.0 L 661.0 602.0 L 659.0 601.0 L 659.0 565.0 Z M 595.0 563.0 L 597.0 565.0 L 597.0 601.0 L 596.0 602.0 L 594.0 601.0 L 594.0 564.0 Z M 356.0 563.0 L 363.0 563.0 L 364.0 564.0 L 366.0 564.0 L 367.0 563.0 L 368.0 564.0 L 368.0 581.0 L 371.0 583.0 L 370.0 584.0 L 356.0 584.0 L 353.0 582.0 L 355.0 580.0 L 355.0 564.0 Z M 488.0 563.0 L 483.0 568.0 L 479.0 568.0 L 478.0 567.0 L 478.0 566.0 L 482.0 563.0 L 484.0 563.0 L 485.0 562.0 L 487.0 562.0 Z M 422.0 561.0 L 423.0 560.0 L 426.0 561.0 L 429.0 563.0 L 431.0 566.0 L 430.0 567.0 L 426.0 566.0 L 422.0 563.0 Z M 324.0 560.0 L 326.0 561.0 L 335.0 561.0 L 336.0 562.0 L 336.0 579.0 L 339.0 581.0 L 338.0 583.0 L 337.0 582.0 L 322.0 582.0 L 320.0 580.0 L 323.0 578.0 L 323.0 561.0 Z M 289.0 558.0 L 297.0 558.0 L 302.0 560.0 L 302.0 577.0 L 305.0 579.0 L 304.0 581.0 L 287.0 580.0 L 286.0 579.0 L 286.0 578.0 L 288.0 577.0 L 288.0 559.0 Z M 464.0 556.0 L 465.0 558.0 L 463.0 559.0 L 462.0 558.0 Z M 655.0 552.0 L 656.0 551.0 L 657.0 553.0 L 656.0 554.0 Z M 458.0 550.0 L 459.0 551.0 L 459.0 553.0 L 458.0 554.0 L 457.0 553.0 L 457.0 551.0 Z M 995.0 549.0 L 1013.0 549.0 L 1014.0 550.0 L 1014.0 570.0 L 1016.0 572.0 L 1015.0 573.0 L 994.0 573.0 L 993.0 572.0 L 994.0 570.0 L 994.0 550.0 Z M 954.0 550.0 L 955.0 549.0 L 973.0 549.0 L 975.0 551.0 L 974.0 552.0 L 974.0 561.0 L 975.0 562.0 L 975.0 570.0 L 977.0 572.0 L 976.0 573.0 L 953.0 573.0 L 952.0 571.0 L 954.0 570.0 Z M 916.0 549.0 L 934.0 549.0 L 935.0 550.0 L 935.0 570.0 L 937.0 572.0 L 936.0 573.0 L 915.0 573.0 L 914.0 572.0 L 915.0 570.0 L 915.0 550.0 Z M 872.0 550.0 L 872.0 570.0 L 874.0 571.0 L 873.0 573.0 L 833.0 573.0 L 832.0 572.0 L 834.0 570.0 L 869.0 570.0 L 869.0 569.0 L 855.0 569.0 L 854.0 568.0 L 854.0 550.0 L 855.0 549.0 L 871.0 549.0 Z M 833.0 549.0 L 848.0 549.0 L 850.0 551.0 L 849.0 552.0 L 850.0 553.0 L 850.0 568.0 L 849.0 569.0 L 836.0 569.0 L 835.0 568.0 L 836.0 567.0 L 835.0 562.0 L 837.0 559.0 L 836.0 557.0 L 832.0 554.0 L 832.0 550.0 Z M 654.0 550.0 L 655.0 549.0 L 656.0 551.0 L 655.0 552.0 Z M 473.0 548.0 L 474.0 550.0 L 468.0 554.0 L 467.0 553.0 L 472.0 548.0 Z M 429.0 549.0 L 431.0 548.0 L 433.0 549.0 L 434.0 551.0 L 432.0 552.0 Z M 768.0 547.0 L 771.0 551.0 L 771.0 554.0 L 770.0 555.0 L 766.0 553.0 L 765.0 554.0 L 763.0 553.0 L 764.0 551.0 L 767.0 551.0 L 768.0 552.0 L 768.0 550.0 L 767.0 549.0 Z M 602.0 547.0 L 603.0 549.0 L 599.0 554.0 L 598.0 552.0 Z M 449.0 545.0 L 452.0 551.0 L 452.0 556.0 L 453.0 557.0 L 452.0 559.0 L 451.0 559.0 L 442.0 551.0 L 444.0 550.0 L 449.0 554.0 L 449.0 550.0 L 448.0 549.0 L 448.0 546.0 Z M 649.0 545.0 L 651.0 544.0 L 654.0 548.0 L 653.0 549.0 Z M 604.0 545.0 L 605.0 544.0 L 607.0 545.0 L 606.0 546.0 Z M 357.0 544.0 L 364.0 544.0 L 368.0 547.0 L 368.0 562.0 L 367.0 563.0 L 366.0 562.0 L 356.0 562.0 L 355.0 561.0 L 355.0 546.0 Z M 781.0 543.0 L 783.0 544.0 L 783.0 549.0 L 785.0 549.0 L 786.0 548.0 L 787.0 549.0 L 787.0 550.0 L 783.0 554.0 L 782.0 553.0 L 782.0 551.0 L 780.0 549.0 L 780.0 544.0 Z M 614.0 546.0 L 616.0 546.0 L 620.0 544.0 L 626.0 544.0 L 627.0 543.0 L 637.0 544.0 L 638.0 545.0 L 643.0 546.0 L 646.0 548.0 L 652.0 556.0 L 651.0 562.0 L 653.0 564.0 L 653.0 602.0 L 650.0 606.0 L 649.0 605.0 L 647.0 606.0 L 624.0 606.0 L 623.0 605.0 L 621.0 606.0 L 614.0 606.0 L 613.0 605.0 L 611.0 606.0 L 607.0 606.0 L 603.0 604.0 L 602.0 602.0 L 602.0 564.0 L 605.0 561.0 L 603.0 557.0 L 604.0 555.0 Z M 681.0 542.0 L 693.0 542.0 L 694.0 543.0 L 696.0 543.0 L 701.0 546.0 L 705.0 552.0 L 704.0 558.0 L 707.0 561.0 L 707.0 602.0 L 705.0 606.0 L 681.0 606.0 L 680.0 605.0 L 670.0 605.0 L 668.0 602.0 L 668.0 562.0 L 671.0 558.0 L 671.0 555.0 L 669.0 553.0 L 671.0 549.0 L 675.0 545.0 Z M 646.0 543.0 L 647.0 542.0 L 649.0 543.0 L 648.0 544.0 Z M 607.0 543.0 L 608.0 542.0 L 610.0 543.0 L 609.0 544.0 Z M 560.0 543.0 L 562.0 543.0 L 563.0 542.0 L 575.0 542.0 L 579.0 544.0 L 586.0 552.0 L 585.0 558.0 L 588.0 562.0 L 588.0 602.0 L 586.0 605.0 L 574.0 605.0 L 573.0 606.0 L 550.0 606.0 L 549.0 605.0 L 549.0 603.0 L 548.0 602.0 L 548.0 561.0 L 551.0 558.0 L 551.0 555.0 L 550.0 554.0 L 551.0 550.0 L 556.0 545.0 Z M 644.0 542.0 L 645.0 541.0 L 647.0 542.0 L 646.0 543.0 Z M 609.0 542.0 L 610.0 541.0 L 612.0 542.0 L 611.0 543.0 Z M 325.0 541.0 L 329.0 540.0 L 334.0 542.0 L 336.0 544.0 L 336.0 559.0 L 335.0 560.0 L 334.0 559.0 L 324.0 559.0 L 323.0 558.0 L 323.0 543.0 Z M 809.0 539.0 L 810.0 540.0 L 810.0 546.0 L 809.0 547.0 L 808.0 546.0 L 804.0 547.0 L 803.0 546.0 Z M 353.0 541.0 L 357.0 538.0 L 364.0 537.0 L 368.0 539.0 L 372.0 544.0 L 370.0 546.0 L 369.0 546.0 L 365.0 542.0 L 358.0 542.0 L 354.0 544.0 L 353.0 543.0 Z M 291.0 537.0 L 297.0 537.0 L 302.0 540.0 L 302.0 556.0 L 301.0 557.0 L 289.0 556.0 L 288.0 555.0 L 288.0 539.0 Z M 698.0 536.0 L 699.0 535.0 L 703.0 537.0 L 706.0 536.0 L 707.0 537.0 L 707.0 543.0 L 706.0 544.0 L 700.0 538.0 L 699.0 538.0 Z M 548.0 544.0 L 548.0 536.0 L 549.0 535.0 L 551.0 537.0 L 553.0 536.0 L 556.0 536.0 L 557.0 537.0 L 555.0 538.0 L 549.0 545.0 Z M 320.0 538.0 L 326.0 534.0 L 332.0 534.0 L 336.0 536.0 L 340.0 540.0 L 340.0 541.0 L 337.0 543.0 L 333.0 539.0 L 330.0 539.0 L 329.0 538.0 L 328.0 539.0 L 325.0 539.0 L 323.0 541.0 L 321.0 541.0 L 320.0 540.0 Z M 668.0 543.0 L 668.0 534.0 L 669.0 533.0 L 671.0 533.0 L 672.0 534.0 L 672.0 536.0 L 675.0 533.0 L 678.0 533.0 L 679.0 534.0 L 676.0 536.0 L 669.0 544.0 Z M 577.0 534.0 L 578.0 533.0 L 580.0 533.0 L 585.0 537.0 L 585.0 534.0 L 587.0 533.0 L 588.0 534.0 L 588.0 542.0 L 587.0 543.0 L 583.0 538.0 Z M 645.0 533.0 L 646.0 532.0 L 648.0 533.0 L 652.0 533.0 L 655.0 537.0 L 655.0 534.0 L 656.0 533.0 L 658.0 533.0 L 659.0 534.0 L 658.0 535.0 L 658.0 540.0 L 659.0 541.0 L 659.0 543.0 L 658.0 544.0 L 651.0 536.0 L 647.0 535.0 Z M 597.0 543.0 L 597.0 533.0 L 598.0 532.0 L 600.0 534.0 L 600.0 537.0 L 604.0 533.0 L 608.0 533.0 L 609.0 532.0 L 611.0 532.0 L 612.0 533.0 L 604.0 537.0 L 598.0 544.0 Z M 285.0 535.0 L 290.0 531.0 L 292.0 531.0 L 293.0 530.0 L 298.0 530.0 L 299.0 531.0 L 301.0 531.0 L 306.0 536.0 L 306.0 537.0 L 303.0 539.0 L 297.0 535.0 L 292.0 535.0 L 287.0 538.0 Z M 486.0 527.0 L 486.0 528.0 L 482.0 532.0 L 480.0 533.0 L 478.0 533.0 L 477.0 532.0 L 485.0 526.0 Z M 996.0 524.0 L 1013.0 524.0 L 1014.0 525.0 L 1014.0 544.0 L 1012.0 546.0 L 996.0 546.0 L 994.0 544.0 L 994.0 526.0 Z M 956.0 524.0 L 973.0 524.0 L 975.0 526.0 L 975.0 544.0 L 973.0 546.0 L 956.0 546.0 L 954.0 544.0 L 954.0 526.0 Z M 917.0 524.0 L 933.0 524.0 L 935.0 526.0 L 935.0 544.0 L 933.0 546.0 L 917.0 546.0 L 915.0 544.0 L 915.0 526.0 Z M 859.0 524.0 L 866.0 524.0 L 867.0 525.0 L 869.0 525.0 L 872.0 528.0 L 872.0 544.0 L 870.0 546.0 L 856.0 546.0 L 854.0 544.0 L 854.0 527.0 Z M 834.0 525.0 L 836.0 525.0 L 837.0 524.0 L 845.0 524.0 L 850.0 528.0 L 850.0 544.0 L 849.0 545.0 L 839.0 545.0 L 838.0 546.0 L 833.0 546.0 L 832.0 545.0 L 832.0 527.0 Z M 668.0 523.0 L 669.0 522.0 L 679.0 522.0 L 680.0 523.0 L 689.0 523.0 L 690.0 524.0 L 697.0 524.0 L 698.0 525.0 L 706.0 525.0 L 707.0 526.0 L 707.0 531.0 L 705.0 532.0 L 704.0 531.0 L 695.0 531.0 L 694.0 530.0 L 684.0 530.0 L 683.0 529.0 L 674.0 529.0 L 673.0 528.0 L 669.0 528.0 L 668.0 527.0 Z M 588.0 523.0 L 588.0 527.0 L 587.0 528.0 L 583.0 528.0 L 582.0 529.0 L 574.0 529.0 L 573.0 530.0 L 563.0 530.0 L 562.0 531.0 L 553.0 531.0 L 552.0 532.0 L 549.0 532.0 L 548.0 531.0 L 548.0 527.0 L 553.0 525.0 L 560.0 525.0 L 561.0 524.0 L 568.0 524.0 L 569.0 523.0 L 578.0 523.0 L 579.0 522.0 L 587.0 522.0 Z M 253.0 522.0 L 255.0 523.0 L 255.0 525.0 L 262.0 528.0 L 267.0 532.0 L 267.0 575.0 L 269.0 577.0 L 269.0 579.0 L 268.0 580.0 L 266.0 580.0 L 265.0 579.0 L 238.0 578.0 L 237.0 577.0 L 237.0 575.0 L 238.0 574.0 L 238.0 531.0 L 244.0 527.0 L 251.0 525.0 Z M 245.0 554.0 L 245.0 573.0 L 248.0 573.0 L 249.0 574.0 L 260.0 574.0 L 260.0 555.0 Z M 245.0 534.0 L 245.0 552.0 L 260.0 553.0 L 260.0 534.0 L 256.0 531.0 L 250.0 531.0 Z M 597.0 527.0 L 597.0 523.0 L 599.0 521.0 L 657.0 521.0 L 659.0 524.0 L 657.0 528.0 L 598.0 528.0 Z M 466.0 521.0 L 467.0 523.0 L 463.0 528.0 L 462.0 526.0 Z M 454.0 520.0 L 455.0 520.0 L 457.0 523.0 L 457.0 526.0 L 456.0 527.0 L 453.0 523.0 L 453.0 521.0 Z M 912.0 519.0 L 915.0 517.0 L 918.0 517.0 L 919.0 516.0 L 932.0 516.0 L 937.0 518.0 L 938.0 520.0 L 936.0 522.0 L 934.0 522.0 L 933.0 521.0 L 928.0 521.0 L 927.0 520.0 L 914.0 522.0 Z M 852.0 521.0 L 857.0 517.0 L 859.0 517.0 L 860.0 516.0 L 866.0 516.0 L 873.0 519.0 L 875.0 521.0 L 875.0 523.0 L 874.0 524.0 L 872.0 524.0 L 866.0 521.0 L 860.0 521.0 L 859.0 522.0 L 856.0 522.0 L 854.0 524.0 Z M 828.0 522.0 L 831.0 519.0 L 838.0 516.0 L 845.0 516.0 L 851.0 520.0 L 851.0 522.0 L 850.0 523.0 L 848.0 522.0 L 844.0 522.0 L 843.0 521.0 L 839.0 521.0 L 838.0 522.0 L 835.0 522.0 L 831.0 525.0 Z M 991.0 520.0 L 993.0 517.0 L 1002.0 516.0 L 1003.0 515.0 L 1005.0 515.0 L 1006.0 516.0 L 1011.0 516.0 L 1018.0 519.0 L 1015.0 522.0 L 1012.0 522.0 L 1011.0 521.0 L 998.0 521.0 L 994.0 523.0 Z M 951.0 519.0 L 953.0 517.0 L 962.0 516.0 L 963.0 515.0 L 977.0 517.0 L 979.0 519.0 L 976.0 522.0 L 966.0 521.0 L 965.0 520.0 L 964.0 521.0 L 958.0 521.0 L 954.0 523.0 Z M 851.0 513.0 L 855.0 515.0 L 852.0 519.0 L 849.0 515.0 Z M 439.0 507.0 L 440.0 508.0 L 440.0 510.0 L 439.0 511.0 L 436.0 511.0 L 435.0 509.0 Z M 440.0 506.0 L 442.0 505.0 L 446.0 509.0 L 444.0 510.0 L 442.0 509.0 Z M 450.0 498.0 L 451.0 498.0 L 453.0 501.0 L 453.0 505.0 L 452.0 506.0 L 449.0 503.0 L 450.0 501.0 L 449.0 499.0 Z M 470.0 493.0 L 471.0 495.0 L 466.0 502.0 L 465.0 501.0 L 465.0 499.0 Z M 358.0 487.0 L 363.0 487.0 L 369.0 492.0 L 368.0 494.0 L 368.0 522.0 L 371.0 524.0 L 370.0 526.0 L 359.0 525.0 L 358.0 524.0 L 354.0 524.0 L 353.0 523.0 L 354.0 521.0 L 357.0 521.0 L 358.0 522.0 L 366.0 522.0 L 366.0 521.0 L 361.0 521.0 L 360.0 520.0 L 356.0 520.0 L 355.0 519.0 L 355.0 504.0 L 356.0 503.0 L 357.0 504.0 L 364.0 504.0 L 366.0 505.0 L 366.0 503.0 L 360.0 503.0 L 355.0 501.0 L 355.0 489.0 Z M 326.0 482.0 L 331.0 482.0 L 336.0 486.0 L 336.0 518.0 L 340.0 521.0 L 339.0 522.0 L 323.0 521.0 L 320.0 519.0 L 321.0 517.0 L 323.0 517.0 L 323.0 500.0 L 325.0 499.0 L 326.0 500.0 L 332.0 500.0 L 334.0 501.0 L 333.0 499.0 L 329.0 499.0 L 328.0 498.0 L 324.0 498.0 L 323.0 497.0 L 323.0 484.0 Z M 353.0 484.0 L 357.0 481.0 L 363.0 480.0 L 367.0 482.0 L 372.0 488.0 L 370.0 491.0 L 363.0 485.0 L 357.0 486.0 L 355.0 488.0 L 353.0 486.0 Z M 290.0 477.0 L 297.0 477.0 L 302.0 480.0 L 302.0 515.0 L 303.0 516.0 L 305.0 516.0 L 306.0 517.0 L 305.0 518.0 L 296.0 518.0 L 295.0 517.0 L 287.0 517.0 L 286.0 516.0 L 286.0 514.0 L 288.0 513.0 L 288.0 497.0 L 289.0 496.0 L 300.0 497.0 L 299.0 495.0 L 292.0 495.0 L 288.0 493.0 L 288.0 479.0 Z M 290.0 513.0 L 290.0 514.0 L 293.0 514.0 L 294.0 515.0 L 300.0 515.0 L 300.0 514.0 L 297.0 514.0 L 296.0 513.0 Z M 320.0 480.0 L 324.0 476.0 L 331.0 475.0 L 332.0 476.0 L 334.0 476.0 L 340.0 482.0 L 340.0 484.0 L 338.0 486.0 L 331.0 480.0 L 327.0 480.0 L 326.0 481.0 L 324.0 481.0 L 322.0 483.0 Z M 285.0 475.0 L 289.0 471.0 L 291.0 471.0 L 292.0 470.0 L 299.0 470.0 L 301.0 471.0 L 307.0 478.0 L 304.0 481.0 L 303.0 479.0 L 298.0 475.0 L 291.0 475.0 L 288.0 477.0 L 286.0 477.0 Z M 892.0 463.0 L 894.0 465.0 L 894.0 502.0 L 893.0 503.0 L 894.0 504.0 L 894.0 578.0 L 893.0 579.0 L 894.0 580.0 L 894.0 582.0 L 893.0 583.0 L 894.0 585.0 L 894.0 611.0 L 892.0 613.0 L 892.0 615.0 L 890.0 618.0 L 889.0 617.0 L 889.0 585.0 L 890.0 583.0 L 847.0 583.0 L 845.0 581.0 L 846.0 580.0 L 862.0 580.0 L 863.0 579.0 L 869.0 579.0 L 870.0 580.0 L 889.0 580.0 L 890.0 579.0 L 889.0 578.0 L 889.0 573.0 L 888.0 572.0 L 889.0 570.0 L 889.0 504.0 L 890.0 503.0 L 888.0 500.0 L 889.0 499.0 L 889.0 465.0 Z M 274.0 462.0 L 275.0 461.0 L 279.0 461.0 L 280.0 463.0 L 279.0 464.0 L 277.0 464.0 Z M 253.0 460.0 L 255.0 461.0 L 255.0 463.0 L 259.0 464.0 L 267.0 472.0 L 267.0 511.0 L 269.0 512.0 L 269.0 530.0 L 268.0 531.0 L 267.0 530.0 L 267.0 516.0 L 266.0 515.0 L 261.0 515.0 L 260.0 514.0 L 252.0 514.0 L 251.0 513.0 L 244.0 513.0 L 243.0 512.0 L 240.0 512.0 L 240.0 527.0 L 239.0 528.0 L 237.0 527.0 L 237.0 509.0 L 238.0 508.0 L 238.0 471.0 L 244.0 464.0 L 249.0 462.0 L 252.0 462.0 Z M 250.0 468.0 L 245.0 472.0 L 245.0 487.0 L 246.0 488.0 L 258.0 489.0 L 259.0 490.0 L 258.0 491.0 L 250.0 491.0 L 249.0 490.0 L 245.0 490.0 L 245.0 508.0 L 260.0 510.0 L 260.0 492.0 L 258.0 491.0 L 260.0 490.0 L 260.0 473.0 L 256.0 469.0 L 254.0 468.0 Z M 850.0 433.0 L 853.0 433.0 L 854.0 434.0 L 854.0 438.0 L 861.0 439.0 L 867.0 442.0 L 871.0 446.0 L 875.0 453.0 L 875.0 457.0 L 877.0 462.0 L 875.0 465.0 L 873.0 465.0 L 873.0 498.0 L 875.0 500.0 L 875.0 502.0 L 874.0 503.0 L 829.0 503.0 L 828.0 502.0 L 830.0 498.0 L 830.0 465.0 L 827.0 463.0 L 828.0 455.0 L 832.0 447.0 L 839.0 441.0 L 843.0 439.0 L 849.0 438.0 L 849.0 434.0 Z M 856.0 480.0 L 855.0 481.0 L 855.0 497.0 L 856.0 498.0 L 869.0 498.0 L 869.0 481.0 L 868.0 480.0 L 867.0 481.0 L 866.0 480.0 Z M 835.0 480.0 L 834.0 481.0 L 834.0 498.0 L 847.0 498.0 L 847.0 481.0 L 845.0 480.0 Z M 856.0 464.0 L 855.0 465.0 L 855.0 478.0 L 869.0 478.0 L 869.0 464.0 Z M 835.0 464.0 L 834.0 465.0 L 834.0 478.0 L 847.0 478.0 L 847.0 464.0 Z M 852.0 461.0 L 851.0 461.0 L 850.0 463.0 L 850.0 498.0 L 852.0 498.0 Z M 855.0 461.0 L 856.0 462.0 L 869.0 462.0 L 868.0 457.0 L 866.0 455.0 L 860.0 455.0 L 858.0 456.0 Z M 834.0 461.0 L 835.0 462.0 L 847.0 462.0 L 847.0 459.0 L 845.0 456.0 L 843.0 455.0 L 837.0 455.0 L 835.0 457.0 L 835.0 460.0 Z M 837.0 453.0 L 849.0 447.0 L 855.0 447.0 L 860.0 449.0 L 863.0 452.0 L 865.0 452.0 L 865.0 451.0 L 863.0 448.0 L 859.0 445.0 L 857.0 445.0 L 856.0 444.0 L 848.0 444.0 L 840.0 448.0 Z M 883.0 429.0 L 885.0 430.0 L 885.0 432.0 L 884.0 433.0 L 881.0 431.0 Z M 816.0 432.0 L 816.0 430.0 L 817.0 429.0 L 820.0 431.0 L 818.0 433.0 Z M 805.0 421.0 L 805.0 423.0 L 807.0 425.0 L 895.0 425.0 L 898.0 423.0 L 898.0 420.0 L 897.0 419.0 L 807.0 419.0 Z M 223.0 426.0 L 223.0 439.0 L 225.0 439.0 L 226.0 440.0 L 232.0 440.0 L 233.0 441.0 L 238.0 441.0 L 239.0 442.0 L 244.0 442.0 L 245.0 443.0 L 250.0 443.0 L 251.0 444.0 L 257.0 444.0 L 258.0 445.0 L 263.0 445.0 L 264.0 446.0 L 269.0 446.0 L 270.0 447.0 L 275.0 447.0 L 276.0 448.0 L 282.0 448.0 L 283.0 449.0 L 289.0 449.0 L 290.0 450.0 L 302.0 451.0 L 303.0 452.0 L 308.0 452.0 L 309.0 453.0 L 315.0 453.0 L 316.0 454.0 L 321.0 454.0 L 322.0 455.0 L 327.0 455.0 L 328.0 456.0 L 333.0 456.0 L 334.0 457.0 L 339.0 457.0 L 340.0 458.0 L 345.0 458.0 L 346.0 459.0 L 351.0 459.0 L 352.0 460.0 L 357.0 460.0 L 358.0 461.0 L 363.0 461.0 L 364.0 462.0 L 369.0 462.0 L 370.0 463.0 L 375.0 463.0 L 376.0 464.0 L 381.0 464.0 L 382.0 465.0 L 386.0 465.0 L 388.0 463.0 L 387.0 462.0 L 384.0 462.0 L 382.0 460.0 L 382.0 447.0 L 383.0 445.0 L 381.0 444.0 L 371.0 443.0 L 370.0 444.0 L 370.0 446.0 L 372.0 448.0 L 371.0 450.0 L 363.0 449.0 L 362.0 448.0 L 357.0 448.0 L 356.0 447.0 L 351.0 447.0 L 350.0 446.0 L 346.0 446.0 L 345.0 445.0 L 343.0 445.0 L 341.0 443.0 L 343.0 441.0 L 344.0 438.0 L 337.0 437.0 L 330.0 434.0 L 324.0 428.0 L 321.0 420.0 L 321.0 417.0 L 324.0 415.0 L 325.0 413.0 L 313.0 410.0 L 310.0 406.0 L 311.0 402.0 L 309.0 399.0 L 310.0 397.0 L 308.0 394.0 L 305.0 396.0 L 305.0 398.0 L 306.0 399.0 L 304.0 401.0 L 305.0 406.0 L 302.0 409.0 L 300.0 409.0 L 299.0 410.0 L 294.0 409.0 L 293.0 408.0 L 290.0 409.0 L 290.0 411.0 L 293.0 413.0 L 293.0 417.0 L 291.0 420.0 L 290.0 424.0 L 288.0 426.0 L 290.0 426.0 L 291.0 427.0 L 288.0 429.0 L 283.0 429.0 L 278.0 427.0 L 273.0 427.0 L 271.0 429.0 L 275.0 433.0 L 274.0 435.0 L 269.0 435.0 L 268.0 434.0 L 264.0 434.0 L 263.0 433.0 L 258.0 433.0 L 257.0 432.0 L 247.0 431.0 L 246.0 430.0 L 242.0 430.0 L 241.0 429.0 L 237.0 429.0 L 236.0 428.0 L 232.0 428.0 L 231.0 427.0 L 226.0 427.0 L 225.0 426.0 Z M 310.0 426.0 L 311.0 427.0 L 311.0 432.0 L 313.0 434.0 L 311.0 437.0 L 309.0 438.0 L 306.0 433.0 L 308.0 431.0 L 308.0 429.0 Z M 293.0 424.0 L 294.0 425.0 L 291.0 427.0 L 290.0 426.0 Z M 296.0 420.0 L 297.0 422.0 L 295.0 424.0 L 294.0 422.0 Z M 296.0 419.0 L 297.0 418.0 L 298.0 420.0 L 297.0 421.0 Z M 298.0 415.0 L 299.0 416.0 L 299.0 418.0 L 298.0 419.0 L 297.0 418.0 L 297.0 416.0 Z M 517.0 516.0 L 517.0 518.0 L 518.0 519.0 L 524.0 519.0 L 525.0 518.0 L 533.0 517.0 L 534.0 516.0 L 548.0 515.0 L 549.0 514.0 L 556.0 514.0 L 557.0 513.0 L 564.0 513.0 L 565.0 512.0 L 572.0 512.0 L 573.0 511.0 L 586.0 510.0 L 587.0 509.0 L 671.0 509.0 L 672.0 510.0 L 678.0 510.0 L 679.0 511.0 L 685.0 511.0 L 686.0 512.0 L 693.0 512.0 L 694.0 513.0 L 701.0 513.0 L 702.0 514.0 L 708.0 514.0 L 709.0 515.0 L 715.0 515.0 L 716.0 516.0 L 723.0 516.0 L 724.0 517.0 L 729.0 517.0 L 730.0 518.0 L 734.0 518.0 L 735.0 519.0 L 738.0 517.0 L 737.0 515.0 L 735.0 515.0 L 721.0 508.0 L 719.0 508.0 L 703.0 500.0 L 701.0 498.0 L 694.0 495.0 L 692.0 493.0 L 684.0 489.0 L 672.0 481.0 L 659.0 470.0 L 658.0 470.0 L 643.0 454.0 L 635.0 441.0 L 635.0 439.0 L 639.0 434.0 L 631.0 427.0 L 632.0 423.0 L 628.0 418.0 L 628.0 405.0 L 629.0 403.0 L 631.0 402.0 L 631.0 399.0 L 628.0 396.0 L 629.0 395.0 L 628.0 394.0 L 628.0 385.0 L 629.0 384.0 L 629.0 381.0 L 627.0 379.0 L 624.0 380.0 L 623.0 382.0 L 624.0 384.0 L 624.0 397.0 L 621.0 400.0 L 621.0 401.0 L 625.0 405.0 L 624.0 406.0 L 624.0 420.0 L 621.0 423.0 L 622.0 427.0 L 615.0 433.0 L 615.0 435.0 L 617.0 438.0 L 619.0 439.0 L 619.0 441.0 L 609.0 457.0 L 589.0 477.0 L 568.0 492.0 L 540.0 507.0 L 538.0 507.0 L 533.0 510.0 L 531.0 510.0 L 528.0 512.0 L 526.0 512.0 L 523.0 514.0 L 521.0 514.0 Z M 647.0 480.0 L 648.0 479.0 L 649.0 481.0 L 648.0 482.0 Z M 607.0 479.0 L 608.0 478.0 L 609.0 480.0 L 608.0 481.0 Z M 644.0 476.0 L 645.0 475.0 L 647.0 478.0 L 646.0 479.0 Z M 643.0 474.0 L 644.0 473.0 L 645.0 475.0 L 644.0 476.0 Z M 611.0 473.0 L 612.0 475.0 L 609.0 479.0 L 608.0 477.0 Z M 611.0 472.0 L 612.0 471.0 L 613.0 473.0 L 612.0 474.0 Z M 612.0 470.0 L 613.0 469.0 L 614.0 471.0 L 613.0 472.0 Z M 640.0 465.0 L 644.0 472.0 L 643.0 474.0 L 639.0 468.0 L 639.0 466.0 Z M 638.0 464.0 L 639.0 463.0 L 640.0 465.0 L 639.0 466.0 Z M 616.0 462.0 L 617.0 463.0 L 617.0 465.0 L 614.0 470.0 L 613.0 469.0 L 613.0 467.0 Z M 637.0 462.0 L 638.0 461.0 L 639.0 463.0 L 638.0 464.0 Z M 618.0 457.0 L 619.0 458.0 L 619.0 460.0 L 617.0 463.0 L 616.0 462.0 L 616.0 460.0 Z M 636.0 456.0 L 638.0 459.0 L 638.0 461.0 L 637.0 462.0 L 635.0 459.0 L 635.0 457.0 Z M 619.0 454.0 L 620.0 455.0 L 620.0 457.0 L 619.0 458.0 L 618.0 457.0 L 618.0 455.0 Z M 635.0 453.0 L 636.0 454.0 L 636.0 456.0 L 635.0 457.0 L 634.0 456.0 L 634.0 454.0 Z M 634.0 450.0 L 635.0 451.0 L 635.0 453.0 L 634.0 454.0 L 633.0 453.0 L 633.0 451.0 Z M 633.0 447.0 L 634.0 448.0 L 634.0 450.0 L 633.0 451.0 L 632.0 450.0 L 632.0 448.0 Z M 621.0 447.0 L 622.0 448.0 L 622.0 451.0 L 620.0 455.0 L 619.0 454.0 L 619.0 451.0 Z M 632.0 444.0 L 633.0 445.0 L 633.0 447.0 L 632.0 448.0 L 631.0 447.0 L 631.0 445.0 Z M 622.0 444.0 L 623.0 445.0 L 623.0 447.0 L 622.0 448.0 L 621.0 447.0 L 621.0 445.0 Z M 851.0 303.0 L 850.0 305.0 L 850.0 309.0 L 849.0 310.0 L 849.0 315.0 L 850.0 316.0 L 849.0 319.0 L 847.0 321.0 L 841.0 324.0 L 839.0 324.0 L 834.0 327.0 L 826.0 335.0 L 823.0 340.0 L 822.0 346.0 L 821.0 347.0 L 821.0 358.0 L 814.0 362.0 L 814.0 363.0 L 820.0 368.0 L 820.0 410.0 L 818.0 414.0 L 815.0 410.0 L 815.0 406.0 L 814.0 405.0 L 812.0 405.0 L 810.0 407.0 L 810.0 409.0 L 811.0 410.0 L 809.0 413.0 L 809.0 416.0 L 810.0 417.0 L 816.0 417.0 L 817.0 416.0 L 828.0 416.0 L 829.0 415.0 L 869.0 415.0 L 870.0 416.0 L 887.0 416.0 L 888.0 417.0 L 893.0 417.0 L 895.0 414.0 L 893.0 410.0 L 894.0 409.0 L 894.0 407.0 L 892.0 405.0 L 890.0 405.0 L 888.0 408.0 L 889.0 410.0 L 886.0 414.0 L 884.0 412.0 L 884.0 368.0 L 889.0 363.0 L 889.0 362.0 L 885.0 360.0 L 882.0 357.0 L 882.0 345.0 L 878.0 336.0 L 875.0 332.0 L 867.0 325.0 L 863.0 323.0 L 858.0 322.0 L 855.0 319.0 L 854.0 317.0 L 855.0 310.0 L 853.0 308.0 L 853.0 306.0 L 854.0 305.0 L 853.0 303.0 Z M 847.0 375.0 L 856.0 375.0 L 860.0 377.0 L 865.0 382.0 L 868.0 389.0 L 868.0 394.0 L 865.0 401.0 L 861.0 405.0 L 854.0 408.0 L 848.0 408.0 L 842.0 405.0 L 838.0 401.0 L 836.0 397.0 L 836.0 386.0 L 838.0 382.0 L 843.0 377.0 Z M 862.0 391.0 L 862.0 392.0 L 865.0 392.0 L 865.0 391.0 Z M 851.0 383.0 L 851.0 386.0 L 850.0 387.0 L 848.0 385.0 L 847.0 385.0 L 847.0 386.0 L 850.0 389.0 L 849.0 391.0 L 850.0 393.0 L 853.0 393.0 L 854.0 390.0 L 858.0 387.0 L 856.0 387.0 L 853.0 389.0 L 852.0 388.0 L 852.0 383.0 Z M 851.0 378.0 L 851.0 381.0 L 852.0 381.0 L 852.0 378.0 Z M 822.0 367.0 L 827.0 365.0 L 876.0 365.0 L 877.0 366.0 L 880.0 366.0 L 881.0 368.0 L 880.0 369.0 L 878.0 369.0 L 878.0 412.0 L 877.0 413.0 L 875.0 413.0 L 873.0 411.0 L 873.0 370.0 L 875.0 369.0 L 874.0 367.0 L 873.0 368.0 L 829.0 368.0 L 830.0 370.0 L 830.0 412.0 L 829.0 413.0 L 826.0 413.0 L 825.0 412.0 L 825.0 369.0 L 823.0 369.0 Z M 818.0 362.0 L 830.0 356.0 L 874.0 356.0 L 883.0 360.0 L 885.0 362.0 L 883.0 363.0 L 876.0 360.0 L 828.0 360.0 L 821.0 363.0 L 819.0 363.0 Z M 729.0 291.0 L 730.0 292.0 L 1042.0 292.0 L 1044.0 293.0 L 1050.0 299.0 L 1051.0 304.0 L 1052.0 305.0 L 1052.0 311.0 L 1051.0 312.0 L 1051.0 338.0 L 1052.0 339.0 L 1052.0 341.0 L 1051.0 342.0 L 1051.0 354.0 L 1052.0 355.0 L 1052.0 360.0 L 1051.0 361.0 L 1051.0 368.0 L 1052.0 369.0 L 1052.0 376.0 L 1051.0 377.0 L 1051.0 388.0 L 1052.0 389.0 L 1052.0 392.0 L 1051.0 393.0 L 1051.0 405.0 L 1052.0 406.0 L 1051.0 407.0 L 1051.0 433.0 L 1052.0 434.0 L 1052.0 436.0 L 1051.0 437.0 L 1051.0 465.0 L 1052.0 466.0 L 1052.0 475.0 L 1051.0 476.0 L 1051.0 498.0 L 1052.0 499.0 L 1052.0 506.0 L 1051.0 507.0 L 1051.0 559.0 L 1050.0 560.0 L 1047.0 557.0 L 1043.0 555.0 L 1040.0 555.0 L 1039.0 556.0 L 1039.0 558.0 L 1045.0 569.0 L 1045.0 571.0 L 1051.0 582.0 L 1051.0 584.0 L 1057.0 596.0 L 1059.0 597.0 L 1061.0 595.0 L 1064.0 589.0 L 1064.0 587.0 L 1076.0 563.0 L 1076.0 561.0 L 1078.0 558.0 L 1078.0 555.0 L 1074.0 555.0 L 1068.0 558.0 L 1066.0 560.0 L 1064.0 559.0 L 1064.0 301.0 L 1060.0 291.0 L 1052.0 283.0 L 1046.0 280.0 L 1042.0 280.0 L 1041.0 279.0 L 741.0 279.0 L 734.0 286.0 L 734.0 287.0 L 730.0 291.0 Z M 520.0 286.0 L 484.0 267.0 L 482.0 267.0 L 481.0 268.0 L 482.0 273.0 L 485.0 278.0 L 484.0 279.0 L 213.0 279.0 L 212.0 280.0 L 206.0 281.0 L 198.0 286.0 L 194.0 291.0 L 191.0 297.0 L 190.0 303.0 L 189.0 304.0 L 189.0 536.0 L 194.0 533.0 L 198.0 533.0 L 202.0 537.0 L 202.0 303.0 L 203.0 302.0 L 203.0 300.0 L 210.0 293.0 L 212.0 292.0 L 485.0 292.0 L 486.0 293.0 L 481.0 302.0 L 481.0 305.0 L 483.0 306.0 L 518.0 289.0 Z M 779.0 230.0 L 773.0 241.0 L 1084.0 241.0 L 1085.0 242.0 L 1087.0 242.0 L 1092.0 247.0 L 1093.0 249.0 L 1093.0 878.0 L 1106.0 878.0 L 1106.0 252.0 L 1105.0 251.0 L 1105.0 247.0 L 1103.0 242.0 L 1096.0 234.0 L 1087.0 230.0 Z M 163.0 231.0 L 157.0 234.0 L 152.0 239.0 L 148.0 246.0 L 148.0 249.0 L 147.0 250.0 L 147.0 1124.0 L 148.0 1125.0 L 149.0 1130.0 L 152.0 1135.0 L 156.0 1139.0 L 165.0 1143.0 L 571.0 1143.0 L 570.0 1141.0 L 570.0 1137.0 L 569.0 1136.0 L 569.0 1132.0 L 568.0 1131.0 L 167.0 1131.0 L 163.0 1129.0 L 159.0 1124.0 L 159.0 250.0 L 160.0 249.0 L 160.0 247.0 L 164.0 243.0 L 169.0 241.0 L 479.0 241.0 L 473.0 230.0 L 166.0 230.0 L 165.0 231.0 Z M 877.0 197.0 L 877.0 204.0 L 884.0 204.0 L 884.0 197.0 Z M 237.0 164.0 L 237.0 196.0 L 238.0 197.0 L 250.0 197.0 L 254.0 193.0 L 254.0 167.0 L 251.0 164.0 Z M 244.0 169.0 L 248.0 169.0 L 249.0 170.0 L 248.0 171.0 L 248.0 175.0 L 249.0 176.0 L 249.0 184.0 L 248.0 185.0 L 248.0 189.0 L 249.0 190.0 L 247.0 192.0 L 246.0 191.0 L 245.0 192.0 L 243.0 190.0 L 243.0 170.0 Z M 210.0 164.0 L 210.0 196.0 L 211.0 197.0 L 215.0 197.0 L 216.0 196.0 L 216.0 181.0 L 217.0 180.0 L 221.0 190.0 L 222.0 196.0 L 228.0 196.0 L 228.0 164.0 L 223.0 164.0 L 223.0 177.0 L 222.0 178.0 L 220.0 176.0 L 220.0 174.0 L 217.0 167.0 L 217.0 164.0 Z M 1049.0 161.0 L 1044.0 166.0 L 1044.0 180.0 L 1047.0 183.0 L 1058.0 187.0 L 1058.0 197.0 L 1057.0 198.0 L 1052.0 198.0 L 1051.0 197.0 L 1051.0 190.0 L 1045.0 190.0 L 1044.0 191.0 L 1044.0 199.0 L 1049.0 204.0 L 1061.0 204.0 L 1061.0 203.0 L 1065.0 200.0 L 1065.0 184.0 L 1051.0 177.0 L 1051.0 168.0 L 1052.0 167.0 L 1057.0 167.0 L 1058.0 168.0 L 1058.0 174.0 L 1064.0 174.0 L 1065.0 173.0 L 1065.0 165.0 L 1061.0 161.0 Z M 1018.0 161.0 L 1018.0 204.0 L 1036.0 204.0 L 1036.0 198.0 L 1026.0 198.0 L 1025.0 197.0 L 1025.0 186.0 L 1026.0 185.0 L 1034.0 185.0 L 1034.0 179.0 L 1026.0 179.0 L 1025.0 178.0 L 1025.0 168.0 L 1026.0 167.0 L 1036.0 167.0 L 1036.0 161.0 Z M 993.0 161.0 L 993.0 204.0 L 1010.0 204.0 L 1011.0 202.0 L 1011.0 198.0 L 1001.0 198.0 L 1000.0 197.0 L 1000.0 161.0 Z M 976.0 161.0 L 976.0 204.0 L 983.0 204.0 L 983.0 161.0 Z M 940.0 161.0 L 940.0 204.0 L 947.0 204.0 L 947.0 185.0 L 948.0 184.0 L 949.0 185.0 L 949.0 189.0 L 950.0 190.0 L 952.0 200.0 L 954.0 200.0 L 955.0 198.0 L 955.0 195.0 L 957.0 190.0 L 957.0 186.0 L 958.0 185.0 L 959.0 186.0 L 959.0 204.0 L 966.0 204.0 L 966.0 161.0 L 958.0 161.0 L 958.0 164.0 L 957.0 165.0 L 957.0 168.0 L 956.0 169.0 L 956.0 172.0 L 955.0 173.0 L 955.0 176.0 L 953.0 181.0 L 952.0 180.0 L 952.0 176.0 L 949.0 168.0 L 948.0 161.0 Z M 898.0 160.0 L 893.0 165.0 L 893.0 173.0 L 894.0 174.0 L 899.0 174.0 L 900.0 173.0 L 900.0 168.0 L 901.0 167.0 L 905.0 167.0 L 906.0 168.0 L 906.0 177.0 L 893.0 188.0 L 893.0 204.0 L 913.0 204.0 L 913.0 198.0 L 912.0 197.0 L 901.0 197.0 L 900.0 196.0 L 900.0 190.0 L 913.0 180.0 L 913.0 165.0 L 908.0 160.0 Z M 853.0 160.0 L 848.0 165.0 L 848.0 200.0 L 849.0 200.0 L 853.0 204.0 L 864.0 204.0 L 868.0 200.0 L 868.0 182.0 L 864.0 178.0 L 856.0 178.0 L 855.0 177.0 L 855.0 168.0 L 856.0 167.0 L 861.0 167.0 L 862.0 168.0 L 861.0 169.0 L 862.0 170.0 L 862.0 173.0 L 868.0 173.0 L 868.0 164.0 L 864.0 160.0 Z M 856.0 184.0 L 860.0 184.0 L 862.0 186.0 L 862.0 196.0 L 860.0 198.0 L 856.0 198.0 L 855.0 197.0 L 855.0 185.0 Z M 824.0 160.0 L 820.0 164.0 L 820.0 173.0 L 821.0 174.0 L 822.0 173.0 L 823.0 174.0 L 826.0 174.0 L 827.0 173.0 L 827.0 168.0 L 828.0 167.0 L 832.0 167.0 L 833.0 168.0 L 833.0 177.0 L 821.0 187.0 L 820.0 187.0 L 820.0 204.0 L 839.0 204.0 L 840.0 203.0 L 840.0 198.0 L 839.0 197.0 L 828.0 197.0 L 827.0 196.0 L 827.0 190.0 L 840.0 179.0 L 840.0 165.0 L 835.0 160.0 Z M 430.0 160.0 L 430.0 203.0 L 447.0 203.0 L 447.0 197.0 L 438.0 197.0 L 437.0 196.0 L 437.0 160.0 Z M 406.0 160.0 L 405.0 162.0 L 405.0 167.0 L 404.0 168.0 L 404.0 173.0 L 403.0 174.0 L 403.0 179.0 L 402.0 180.0 L 402.0 185.0 L 401.0 186.0 L 401.0 192.0 L 400.0 193.0 L 399.0 203.0 L 406.0 203.0 L 407.0 196.0 L 410.0 194.0 L 413.0 194.0 L 415.0 197.0 L 415.0 202.0 L 416.0 203.0 L 422.0 203.0 L 421.0 193.0 L 420.0 192.0 L 420.0 187.0 L 419.0 186.0 L 419.0 180.0 L 418.0 179.0 L 418.0 174.0 L 417.0 173.0 L 417.0 168.0 L 416.0 167.0 L 416.0 162.0 L 415.0 160.0 Z M 410.0 174.0 L 412.0 175.0 L 412.0 181.0 L 413.0 182.0 L 413.0 188.0 L 412.0 189.0 L 408.0 187.0 L 408.0 181.0 L 409.0 180.0 L 409.0 175.0 Z M 371.0 160.0 L 371.0 199.0 L 375.0 203.0 L 388.0 203.0 L 392.0 199.0 L 392.0 160.0 L 385.0 160.0 L 385.0 195.0 L 383.0 197.0 L 380.0 197.0 L 378.0 195.0 L 378.0 160.0 Z M 341.0 160.0 L 341.0 203.0 L 348.0 203.0 L 348.0 183.0 L 349.0 182.0 L 351.0 186.0 L 351.0 189.0 L 354.0 196.0 L 355.0 202.0 L 356.0 203.0 L 362.0 203.0 L 362.0 160.0 L 356.0 160.0 L 356.0 179.0 L 355.0 180.0 L 352.0 174.0 L 352.0 171.0 L 349.0 164.0 L 349.0 161.0 L 348.0 160.0 Z M 310.0 160.0 L 309.0 161.0 L 309.0 202.0 L 310.0 203.0 L 316.0 203.0 L 316.0 193.0 L 317.0 192.0 L 317.0 184.0 L 318.0 183.0 L 319.0 184.0 L 319.0 187.0 L 322.0 194.0 L 322.0 197.0 L 323.0 198.0 L 324.0 203.0 L 331.0 203.0 L 331.0 160.0 L 324.0 160.0 L 324.0 178.0 L 323.0 179.0 L 321.0 175.0 L 321.0 172.0 L 320.0 171.0 L 317.0 160.0 Z M 285.0 160.0 L 284.0 172.0 L 283.0 173.0 L 283.0 178.0 L 282.0 179.0 L 282.0 184.0 L 281.0 185.0 L 281.0 191.0 L 280.0 192.0 L 280.0 197.0 L 279.0 198.0 L 279.0 202.0 L 278.0 203.0 L 286.0 203.0 L 286.0 199.0 L 288.0 194.0 L 293.0 194.0 L 294.0 195.0 L 295.0 203.0 L 302.0 203.0 L 302.0 197.0 L 301.0 196.0 L 301.0 191.0 L 300.0 190.0 L 300.0 186.0 L 299.0 185.0 L 299.0 180.0 L 298.0 179.0 L 298.0 173.0 L 297.0 172.0 L 296.0 161.0 L 295.0 160.0 Z M 290.0 173.0 L 292.0 177.0 L 292.0 183.0 L 293.0 184.0 L 293.0 188.0 L 292.0 189.0 L 289.0 189.0 L 288.0 188.0 L 289.0 174.0 Z M 181.0 158.0 L 177.0 162.0 L 177.0 172.0 L 184.0 172.0 L 184.0 166.0 L 185.0 165.0 L 189.0 165.0 L 190.0 166.0 L 190.0 176.0 L 183.0 181.0 L 178.0 186.0 L 177.0 186.0 L 177.0 203.0 L 197.0 203.0 L 198.0 202.0 L 197.0 201.0 L 197.0 198.0 L 198.0 197.0 L 197.0 196.0 L 185.0 196.0 L 184.0 195.0 L 184.0 189.0 L 194.0 182.0 L 198.0 178.0 L 198.0 163.0 L 193.0 158.0 Z M 763.0 102.0 L 771.0 119.0 L 773.0 126.0 L 1122.0 126.0 L 1123.0 127.0 L 1123.0 1165.0 L 1122.0 1166.0 L 695.0 1166.0 L 700.0 1176.0 L 699.0 1184.0 L 697.0 1189.0 L 702.0 1189.0 L 703.0 1190.0 L 705.0 1189.0 L 710.0 1189.0 L 711.0 1190.0 L 815.0 1190.0 L 816.0 1189.0 L 820.0 1189.0 L 821.0 1190.0 L 879.0 1190.0 L 880.0 1189.0 L 883.0 1189.0 L 884.0 1190.0 L 909.0 1190.0 L 910.0 1189.0 L 914.0 1189.0 L 915.0 1190.0 L 1022.0 1190.0 L 1023.0 1189.0 L 1032.0 1189.0 L 1033.0 1190.0 L 1043.0 1190.0 L 1044.0 1189.0 L 1052.0 1189.0 L 1053.0 1190.0 L 1076.0 1190.0 L 1077.0 1189.0 L 1093.0 1189.0 L 1094.0 1190.0 L 1100.0 1190.0 L 1101.0 1189.0 L 1113.0 1189.0 L 1114.0 1190.0 L 1115.0 1189.0 L 1129.0 1189.0 L 1130.0 1190.0 L 1136.0 1190.0 L 1137.0 1189.0 L 1145.0 1189.0 L 1145.0 102.0 Z M 106.0 102.0 L 106.0 1189.0 L 107.0 1190.0 L 116.0 1190.0 L 117.0 1189.0 L 129.0 1189.0 L 130.0 1190.0 L 149.0 1190.0 L 150.0 1189.0 L 157.0 1189.0 L 158.0 1190.0 L 230.0 1190.0 L 231.0 1189.0 L 256.0 1189.0 L 257.0 1190.0 L 271.0 1190.0 L 272.0 1189.0 L 290.0 1189.0 L 291.0 1190.0 L 333.0 1190.0 L 334.0 1189.0 L 347.0 1189.0 L 348.0 1190.0 L 369.0 1190.0 L 370.0 1189.0 L 373.0 1189.0 L 374.0 1190.0 L 390.0 1190.0 L 391.0 1189.0 L 400.0 1189.0 L 401.0 1190.0 L 422.0 1190.0 L 423.0 1189.0 L 428.0 1189.0 L 429.0 1190.0 L 453.0 1190.0 L 454.0 1189.0 L 455.0 1190.0 L 466.0 1190.0 L 467.0 1189.0 L 484.0 1189.0 L 485.0 1190.0 L 486.0 1189.0 L 497.0 1189.0 L 498.0 1190.0 L 506.0 1190.0 L 507.0 1189.0 L 561.0 1190.0 L 562.0 1189.0 L 574.0 1189.0 L 575.0 1187.0 L 575.0 1183.0 L 577.0 1179.0 L 577.0 1175.0 L 576.0 1174.0 L 576.0 1171.0 L 574.0 1166.0 L 130.0 1166.0 L 128.0 1164.0 L 129.0 1163.0 L 129.0 127.0 L 130.0 126.0 L 478.0 126.0 L 479.0 125.0 L 480.0 120.0 L 482.0 117.0 L 482.0 115.0 L 485.0 109.0 L 487.0 107.0 L 489.0 102.0 Z M 622.0 25.0 L 621.0 26.0 L 610.0 26.0 L 609.0 27.0 L 604.0 27.0 L 603.0 28.0 L 594.0 29.0 L 593.0 30.0 L 591.0 30.0 L 587.0 32.0 L 584.0 32.0 L 581.0 34.0 L 576.0 35.0 L 560.0 43.0 L 558.0 45.0 L 549.0 50.0 L 541.0 57.0 L 540.0 57.0 L 525.0 72.0 L 525.0 73.0 L 517.0 82.0 L 511.0 91.0 L 510.0 94.0 L 508.0 96.0 L 497.0 120.0 L 497.0 123.0 L 493.0 133.0 L 492.0 143.0 L 491.0 144.0 L 491.0 149.0 L 490.0 150.0 L 490.0 158.0 L 489.0 159.0 L 489.0 179.0 L 490.0 180.0 L 490.0 189.0 L 491.0 190.0 L 491.0 196.0 L 493.0 201.0 L 493.0 205.0 L 495.0 209.0 L 495.0 212.0 L 496.0 213.0 L 498.0 221.0 L 503.0 231.0 L 503.0 233.0 L 516.0 255.0 L 532.0 274.0 L 533.0 274.0 L 542.0 283.0 L 543.0 283.0 L 551.0 290.0 L 574.0 303.0 L 576.0 303.0 L 579.0 305.0 L 581.0 305.0 L 591.0 309.0 L 598.0 310.0 L 599.0 311.0 L 610.0 312.0 L 611.0 313.0 L 622.0 313.0 L 623.0 314.0 L 628.0 314.0 L 629.0 313.0 L 642.0 313.0 L 643.0 312.0 L 653.0 311.0 L 654.0 310.0 L 661.0 309.0 L 662.0 308.0 L 668.0 307.0 L 674.0 304.0 L 676.0 304.0 L 694.0 295.0 L 699.0 291.0 L 702.0 290.0 L 710.0 284.0 L 716.0 278.0 L 717.0 278.0 L 731.0 263.0 L 745.0 242.0 L 751.0 230.0 L 751.0 228.0 L 753.0 225.0 L 753.0 223.0 L 757.0 213.0 L 757.0 210.0 L 758.0 209.0 L 759.0 202.0 L 760.0 201.0 L 760.0 197.0 L 761.0 196.0 L 762.0 182.0 L 763.0 181.0 L 763.0 158.0 L 762.0 157.0 L 762.0 148.0 L 761.0 147.0 L 761.0 142.0 L 759.0 137.0 L 759.0 133.0 L 758.0 132.0 L 757.0 126.0 L 756.0 125.0 L 754.0 117.0 L 752.0 114.0 L 752.0 112.0 L 743.0 94.0 L 741.0 92.0 L 740.0 89.0 L 734.0 80.0 L 719.0 63.0 L 718.0 63.0 L 706.0 52.0 L 696.0 45.0 L 672.0 33.0 L 670.0 33.0 L 663.0 30.0 L 656.0 29.0 L 655.0 28.0 L 651.0 28.0 L 650.0 27.0 L 644.0 27.0 L 643.0 26.0 L 632.0 26.0 L 631.0 25.0 Z M 623.0 32.0 L 649.0 34.0 L 650.0 35.0 L 657.0 36.0 L 658.0 37.0 L 672.0 41.0 L 690.0 50.0 L 709.0 64.0 L 722.0 77.0 L 722.0 78.0 L 729.0 86.0 L 735.0 95.0 L 736.0 98.0 L 738.0 100.0 L 744.0 112.0 L 744.0 114.0 L 748.0 122.0 L 748.0 124.0 L 750.0 128.0 L 750.0 131.0 L 752.0 135.0 L 752.0 139.0 L 753.0 140.0 L 753.0 144.0 L 754.0 145.0 L 754.0 150.0 L 755.0 151.0 L 755.0 164.0 L 756.0 165.0 L 755.0 187.0 L 754.0 188.0 L 754.0 193.0 L 753.0 194.0 L 752.0 203.0 L 750.0 207.0 L 750.0 210.0 L 749.0 211.0 L 747.0 219.0 L 736.0 242.0 L 724.0 259.0 L 717.0 266.0 L 717.0 267.0 L 705.0 278.0 L 689.0 289.0 L 673.0 297.0 L 671.0 297.0 L 658.0 302.0 L 655.0 302.0 L 650.0 304.0 L 645.0 304.0 L 644.0 305.0 L 637.0 305.0 L 636.0 306.0 L 618.0 306.0 L 617.0 305.0 L 609.0 305.0 L 608.0 304.0 L 598.0 303.0 L 597.0 302.0 L 580.0 297.0 L 564.0 289.0 L 548.0 278.0 L 529.0 259.0 L 516.0 241.0 L 505.0 218.0 L 505.0 216.0 L 502.0 209.0 L 500.0 198.0 L 499.0 197.0 L 498.0 185.0 L 497.0 184.0 L 497.0 154.0 L 498.0 153.0 L 498.0 146.0 L 499.0 145.0 L 499.0 141.0 L 500.0 140.0 L 502.0 129.0 L 503.0 128.0 L 506.0 117.0 L 512.0 106.0 L 512.0 104.0 L 528.0 80.0 L 547.0 61.0 L 566.0 48.0 L 576.0 43.0 L 578.0 43.0 L 581.0 41.0 L 583.0 41.0 L 586.0 39.0 L 588.0 39.0 L 595.0 36.0 L 599.0 36.0 L 600.0 35.0 L 604.0 35.0 L 605.0 34.0 L 609.0 34.0 L 610.0 33.0 L 622.0 33.0 Z M 617.0 37.0 L 616.0 38.0 L 608.0 38.0 L 607.0 39.0 L 603.0 39.0 L 602.0 40.0 L 595.0 41.0 L 591.0 43.0 L 588.0 43.0 L 568.0 52.0 L 549.0 65.0 L 531.0 83.0 L 519.0 100.0 L 512.0 114.0 L 512.0 116.0 L 509.0 121.0 L 509.0 123.0 L 506.0 130.0 L 506.0 133.0 L 505.0 134.0 L 505.0 137.0 L 503.0 142.0 L 503.0 146.0 L 502.0 147.0 L 502.0 153.0 L 501.0 154.0 L 501.0 183.0 L 502.0 184.0 L 502.0 190.0 L 503.0 191.0 L 503.0 195.0 L 504.0 196.0 L 505.0 204.0 L 506.0 205.0 L 510.0 219.0 L 515.0 228.0 L 515.0 230.0 L 517.0 232.0 L 519.0 237.0 L 529.0 252.0 L 547.0 271.0 L 565.0 284.0 L 570.0 286.0 L 572.0 288.0 L 578.0 291.0 L 580.0 291.0 L 588.0 295.0 L 590.0 295.0 L 594.0 297.0 L 597.0 297.0 L 598.0 298.0 L 601.0 298.0 L 602.0 299.0 L 614.0 300.0 L 615.0 301.0 L 637.0 301.0 L 638.0 300.0 L 646.0 300.0 L 647.0 299.0 L 651.0 299.0 L 652.0 298.0 L 659.0 297.0 L 660.0 296.0 L 665.0 295.0 L 668.0 293.0 L 670.0 293.0 L 673.0 291.0 L 675.0 291.0 L 685.0 286.0 L 704.0 273.0 L 720.0 257.0 L 736.0 233.0 L 741.0 222.0 L 741.0 220.0 L 743.0 217.0 L 743.0 215.0 L 747.0 205.0 L 748.0 197.0 L 749.0 196.0 L 749.0 192.0 L 750.0 191.0 L 750.0 185.0 L 751.0 184.0 L 751.0 154.0 L 750.0 153.0 L 750.0 147.0 L 749.0 146.0 L 749.0 142.0 L 748.0 141.0 L 747.0 133.0 L 746.0 132.0 L 743.0 121.0 L 741.0 118.0 L 741.0 116.0 L 733.0 100.0 L 722.0 84.0 L 705.0 66.0 L 688.0 54.0 L 670.0 45.0 L 668.0 45.0 L 658.0 41.0 L 655.0 41.0 L 650.0 39.0 L 646.0 39.0 L 645.0 38.0 L 636.0 38.0 L 635.0 37.0 Z M 613.0 278.0 L 614.0 277.0 L 616.0 277.0 L 617.0 279.0 L 616.0 280.0 L 614.0 280.0 Z M 671.0 261.0 L 678.0 261.0 L 680.0 264.0 L 679.0 265.0 L 674.0 265.0 L 674.0 269.0 L 677.0 269.0 L 680.0 272.0 L 680.0 278.0 L 678.0 280.0 L 672.0 280.0 L 670.0 278.0 L 670.0 275.0 L 671.0 274.0 L 672.0 274.0 L 674.0 277.0 L 676.0 276.0 L 676.0 273.0 L 675.0 272.0 L 672.0 272.0 L 670.0 270.0 L 670.0 262.0 Z M 659.0 261.0 L 663.0 261.0 L 666.0 264.0 L 666.0 270.0 L 660.0 275.0 L 661.0 277.0 L 664.0 275.0 L 666.0 277.0 L 666.0 279.0 L 665.0 280.0 L 657.0 280.0 L 656.0 279.0 L 656.0 273.0 L 659.0 270.0 L 662.0 269.0 L 662.0 265.0 L 660.0 265.0 L 660.0 267.0 L 659.0 268.0 L 656.0 266.0 L 656.0 264.0 Z M 645.0 261.0 L 650.0 261.0 L 652.0 263.0 L 652.0 278.0 L 650.0 280.0 L 645.0 280.0 L 643.0 278.0 L 643.0 263.0 Z M 647.0 265.0 L 646.0 266.0 L 646.0 276.0 L 648.0 277.0 L 648.0 265.0 Z M 632.0 261.0 L 636.0 261.0 L 638.0 263.0 L 638.0 271.0 L 636.0 273.0 L 633.0 274.0 L 633.0 277.0 L 637.0 275.0 L 639.0 277.0 L 639.0 279.0 L 638.0 280.0 L 630.0 280.0 L 629.0 279.0 L 629.0 272.0 L 635.0 268.0 L 635.0 266.0 L 634.0 265.0 L 633.0 265.0 L 633.0 267.0 L 632.0 268.0 L 630.0 268.0 L 629.0 267.0 L 629.0 263.0 Z M 602.0 261.0 L 609.0 261.0 L 610.0 262.0 L 610.0 264.0 L 608.0 265.0 L 608.0 279.0 L 607.0 280.0 L 605.0 280.0 L 604.0 279.0 L 604.0 265.0 L 602.0 265.0 L 601.0 264.0 L 601.0 262.0 Z M 591.0 261.0 L 596.0 262.0 L 598.0 265.0 L 596.0 268.0 L 594.0 267.0 L 594.0 265.0 L 592.0 265.0 L 592.0 269.0 L 596.0 270.0 L 598.0 273.0 L 598.0 278.0 L 596.0 280.0 L 590.0 280.0 L 588.0 278.0 L 588.0 275.0 L 589.0 274.0 L 591.0 274.0 L 593.0 277.0 L 594.0 276.0 L 594.0 273.0 L 592.0 273.0 L 588.0 270.0 L 588.0 264.0 Z M 576.0 261.0 L 583.0 261.0 L 584.0 262.0 L 584.0 264.0 L 583.0 265.0 L 579.0 265.0 L 579.0 269.0 L 582.0 269.0 L 583.0 270.0 L 583.0 272.0 L 582.0 273.0 L 579.0 273.0 L 579.0 276.0 L 580.0 277.0 L 582.0 276.0 L 584.0 278.0 L 583.0 280.0 L 576.0 280.0 L 575.0 279.0 L 575.0 262.0 Z M 709.0 241.0 L 710.0 240.0 L 724.0 240.0 L 725.0 241.0 L 724.0 242.0 L 710.0 242.0 Z M 527.0 238.0 L 528.0 237.0 L 530.0 238.0 L 545.0 238.0 L 546.0 239.0 L 554.0 239.0 L 555.0 240.0 L 554.0 241.0 L 544.0 241.0 L 543.0 242.0 L 541.0 242.0 L 541.0 243.0 L 722.0 243.0 L 723.0 245.0 L 717.0 252.0 L 539.0 252.0 L 537.0 253.0 L 532.0 247.0 Z M 592.0 233.0 L 593.0 235.0 L 591.0 237.0 L 590.0 235.0 Z M 561.0 234.0 L 562.0 233.0 L 563.0 235.0 L 562.0 236.0 Z M 593.0 231.0 L 594.0 230.0 L 595.0 232.0 L 594.0 233.0 Z M 597.0 225.0 L 598.0 227.0 L 595.0 231.0 L 594.0 229.0 Z M 598.0 222.0 L 599.0 223.0 L 599.0 225.0 L 598.0 226.0 L 597.0 225.0 L 597.0 223.0 Z M 598.0 221.0 L 599.0 220.0 L 600.0 222.0 L 599.0 223.0 Z M 683.0 217.0 L 685.0 220.0 L 685.0 224.0 L 687.0 229.0 L 687.0 233.0 L 686.0 234.0 L 682.0 234.0 L 681.0 233.0 L 682.0 218.0 Z M 600.0 217.0 L 601.0 218.0 L 601.0 220.0 L 600.0 221.0 L 599.0 220.0 L 599.0 218.0 Z M 677.0 215.0 L 678.0 216.0 L 678.0 219.0 L 677.0 220.0 L 677.0 225.0 L 675.0 229.0 L 671.0 225.0 L 671.0 224.0 Z M 705.0 215.0 L 706.0 214.0 L 707.0 216.0 L 706.0 217.0 Z M 690.0 213.0 L 698.0 221.0 L 694.0 227.0 L 692.0 225.0 L 689.0 217.0 L 689.0 214.0 Z M 601.0 213.0 L 602.0 214.0 L 602.0 217.0 L 601.0 218.0 L 600.0 217.0 L 600.0 214.0 Z M 553.0 214.0 L 554.0 212.0 L 556.0 213.0 L 554.0 215.0 Z M 602.0 210.0 L 603.0 211.0 L 603.0 213.0 L 602.0 214.0 L 601.0 213.0 L 601.0 211.0 Z M 707.0 209.0 L 708.0 210.0 L 708.0 213.0 L 707.0 214.0 L 706.0 213.0 L 706.0 210.0 Z M 668.0 209.0 L 673.0 210.0 L 674.0 211.0 L 669.0 219.0 L 667.0 216.0 L 667.0 213.0 L 666.0 212.0 Z M 608.0 228.0 L 637.0 207.0 L 642.0 207.0 L 643.0 208.0 L 645.0 208.0 L 646.0 209.0 L 646.0 211.0 L 648.0 211.0 L 649.0 212.0 L 653.0 211.0 L 655.0 208.0 L 657.0 210.0 L 657.0 215.0 L 658.0 216.0 L 658.0 219.0 L 659.0 220.0 L 660.0 225.0 L 663.0 231.0 L 665.0 233.0 L 663.0 234.0 L 662.0 233.0 L 657.0 233.0 L 656.0 232.0 L 651.0 232.0 L 650.0 233.0 L 636.0 233.0 L 635.0 232.0 L 636.0 231.0 L 655.0 230.0 L 655.0 229.0 L 639.0 228.0 L 638.0 227.0 L 639.0 226.0 L 647.0 226.0 L 647.0 225.0 L 643.0 225.0 L 642.0 226.0 L 637.0 226.0 L 635.0 225.0 L 634.0 226.0 L 620.0 227.0 L 624.0 227.0 L 625.0 228.0 L 624.0 229.0 L 609.0 229.0 Z M 694.0 205.0 L 696.0 204.0 L 701.0 204.0 L 702.0 205.0 L 702.0 209.0 L 700.0 214.0 L 699.0 214.0 L 694.0 209.0 L 693.0 207.0 Z M 586.0 204.0 L 587.0 203.0 L 595.0 211.0 L 595.0 212.0 L 594.0 213.0 L 586.0 205.0 Z M 562.0 199.0 L 567.0 203.0 L 561.0 210.0 L 559.0 206.0 L 559.0 201.0 Z M 658.0 195.0 L 659.0 194.0 L 662.0 194.0 L 663.0 195.0 L 662.0 196.0 L 659.0 196.0 Z M 564.0 194.0 L 565.0 193.0 L 567.0 193.0 L 568.0 194.0 L 567.0 195.0 L 565.0 195.0 Z M 681.0 191.0 L 684.0 192.0 L 687.0 197.0 L 683.0 203.0 L 682.0 202.0 L 682.0 195.0 L 680.0 192.0 Z M 665.0 192.0 L 666.0 191.0 L 672.0 191.0 L 673.0 192.0 L 672.0 193.0 L 666.0 193.0 Z M 590.0 191.0 L 591.0 190.0 L 593.0 191.0 L 592.0 192.0 Z M 657.0 190.0 L 658.0 189.0 L 659.0 190.0 L 662.0 190.0 L 663.0 191.0 L 663.0 193.0 L 662.0 194.0 L 661.0 192.0 L 659.0 192.0 L 659.0 194.0 L 658.0 195.0 L 657.0 194.0 Z M 593.0 190.0 L 594.0 189.0 L 596.0 190.0 L 595.0 191.0 Z M 560.0 187.0 L 564.0 189.0 L 563.0 192.0 L 561.0 194.0 L 559.0 193.0 L 559.0 188.0 Z M 700.0 186.0 L 702.0 190.0 L 702.0 195.0 L 703.0 196.0 L 701.0 198.0 L 696.0 198.0 L 695.0 196.0 L 692.0 194.0 L 694.0 193.0 L 694.0 192.0 Z M 580.0 187.0 L 581.0 186.0 L 582.0 188.0 L 581.0 189.0 Z M 571.0 186.0 L 572.0 185.0 L 575.0 185.0 L 579.0 189.0 L 579.0 191.0 L 576.0 193.0 L 573.0 187.0 Z M 613.0 185.0 L 614.0 184.0 L 615.0 185.0 L 617.0 185.0 L 618.0 187.0 L 617.0 188.0 L 616.0 187.0 L 614.0 187.0 Z M 561.0 185.0 L 563.0 184.0 L 565.0 186.0 L 563.0 187.0 Z M 576.0 184.0 L 578.0 183.0 L 580.0 185.0 L 578.0 186.0 Z M 558.0 183.0 L 559.0 182.0 L 561.0 183.0 L 560.0 184.0 Z M 671.0 181.0 L 674.0 186.0 L 674.0 189.0 L 673.0 190.0 L 672.0 189.0 L 668.0 189.0 L 667.0 188.0 L 668.0 184.0 Z M 632.0 180.0 L 633.0 181.0 L 633.0 183.0 L 634.0 181.0 L 636.0 184.0 L 636.0 191.0 L 631.0 193.0 L 629.0 191.0 L 629.0 182.0 L 630.0 181.0 L 631.0 182.0 Z M 596.0 176.0 L 598.0 181.0 L 593.0 183.0 L 592.0 181.0 Z M 694.0 174.0 L 697.0 177.0 L 698.0 181.0 L 690.0 189.0 L 689.0 187.0 L 691.0 183.0 L 691.0 180.0 Z M 661.0 176.0 L 664.0 174.0 L 666.0 175.0 L 664.0 177.0 L 662.0 177.0 Z M 629.0 174.0 L 630.0 175.0 L 630.0 180.0 L 629.0 181.0 L 628.0 180.0 L 628.0 175.0 Z M 563.0 172.0 L 565.0 173.0 L 565.0 175.0 L 567.0 177.0 L 570.0 183.0 L 568.0 185.0 L 564.0 184.0 L 561.0 181.0 L 563.0 180.0 L 563.0 179.0 L 561.0 178.0 L 561.0 176.0 Z M 676.0 171.0 L 678.0 172.0 L 678.0 184.0 L 677.0 185.0 L 676.0 184.0 L 676.0 181.0 L 674.0 176.0 L 674.0 173.0 Z M 688.0 168.0 L 689.0 169.0 L 689.0 172.0 L 688.0 173.0 L 687.0 179.0 L 684.0 185.0 L 683.0 184.0 L 683.0 171.0 L 682.0 170.0 L 684.0 168.0 Z M 702.0 167.0 L 709.0 175.0 L 713.0 186.0 L 713.0 189.0 L 714.0 190.0 L 715.0 203.0 L 714.0 204.0 L 713.0 203.0 L 713.0 201.0 L 711.0 205.0 L 709.0 204.0 L 709.0 208.0 L 708.0 209.0 L 707.0 208.0 L 708.0 194.0 L 707.0 193.0 L 706.0 183.0 L 702.0 174.0 L 698.0 169.0 Z M 703.0 171.0 L 704.0 174.0 L 706.0 176.0 L 706.0 178.0 L 708.0 182.0 L 707.0 177.0 Z M 632.0 167.0 L 633.0 168.0 L 633.0 171.0 L 630.0 173.0 L 628.0 171.0 L 628.0 169.0 L 629.0 168.0 L 630.0 170.0 L 631.0 170.0 L 631.0 168.0 Z M 617.0 163.0 L 618.0 165.0 L 613.0 167.0 L 611.0 170.0 L 609.0 165.0 L 610.0 164.0 Z M 571.0 160.0 L 573.0 161.0 L 573.0 174.0 L 572.0 175.0 L 570.0 172.0 L 569.0 167.0 L 567.0 165.0 Z M 638.0 159.0 L 635.0 161.0 L 633.0 161.0 L 629.0 163.0 L 626.0 163.0 L 625.0 164.0 L 622.0 164.0 L 621.0 163.0 L 626.0 161.0 L 628.0 159.0 L 634.0 159.0 L 635.0 158.0 L 637.0 158.0 Z M 590.0 158.0 L 592.0 160.0 L 594.0 164.0 L 594.0 166.0 L 589.0 175.0 L 587.0 177.0 L 586.0 176.0 L 586.0 173.0 L 587.0 172.0 L 588.0 162.0 Z M 643.0 155.0 L 644.0 157.0 L 642.0 161.0 L 642.0 169.0 L 641.0 170.0 L 640.0 169.0 L 640.0 161.0 L 639.0 159.0 L 640.0 157.0 Z M 583.0 152.0 L 584.0 153.0 L 584.0 157.0 L 583.0 158.0 L 583.0 162.0 L 582.0 163.0 L 581.0 171.0 L 579.0 175.0 L 578.0 174.0 L 578.0 155.0 L 580.0 153.0 Z M 673.0 148.0 L 673.0 151.0 L 670.0 154.0 L 664.0 155.0 L 658.0 158.0 L 656.0 157.0 L 645.0 161.0 L 644.0 160.0 L 645.0 157.0 L 650.0 154.0 L 661.0 151.0 L 664.0 149.0 L 666.0 149.0 L 670.0 147.0 L 672.0 147.0 Z M 682.0 142.0 L 683.0 143.0 L 681.0 146.0 L 681.0 149.0 L 680.0 150.0 L 679.0 149.0 L 678.0 151.0 L 677.0 149.0 L 675.0 153.0 L 674.0 152.0 L 674.0 147.0 L 677.0 143.0 Z M 585.0 142.0 L 590.0 142.0 L 595.0 144.0 L 602.0 151.0 L 606.0 158.0 L 606.0 160.0 L 609.0 167.0 L 610.0 176.0 L 611.0 177.0 L 611.0 183.0 L 612.0 184.0 L 612.0 203.0 L 611.0 204.0 L 610.0 203.0 L 609.0 194.0 L 609.0 197.0 L 608.0 198.0 L 606.0 195.0 L 606.0 201.0 L 605.0 202.0 L 605.0 206.0 L 603.0 211.0 L 602.0 210.0 L 602.0 206.0 L 603.0 205.0 L 603.0 199.0 L 604.0 198.0 L 604.0 179.0 L 603.0 178.0 L 603.0 173.0 L 602.0 172.0 L 601.0 165.0 L 596.0 154.0 L 594.0 152.0 L 594.0 151.0 L 596.0 150.0 L 595.0 149.0 L 594.0 151.0 L 588.0 145.0 L 585.0 144.0 L 584.0 143.0 Z M 689.0 139.0 L 695.0 139.0 L 699.0 143.0 L 698.0 145.0 L 695.0 142.0 L 691.0 141.0 L 687.0 144.0 L 687.0 146.0 L 686.0 147.0 L 686.0 153.0 L 691.0 159.0 L 693.0 159.0 L 694.0 160.0 L 698.0 157.0 L 698.0 155.0 L 699.0 154.0 L 699.0 148.0 L 698.0 147.0 L 698.0 145.0 L 699.0 144.0 L 701.0 147.0 L 701.0 157.0 L 699.0 160.0 L 695.0 163.0 L 690.0 162.0 L 683.0 154.0 L 683.0 146.0 L 685.0 142.0 Z M 533.0 90.0 L 551.0 71.0 L 570.0 58.0 L 587.0 50.0 L 589.0 50.0 L 596.0 47.0 L 603.0 46.0 L 604.0 45.0 L 609.0 45.0 L 610.0 44.0 L 618.0 44.0 L 619.0 43.0 L 637.0 43.0 L 638.0 44.0 L 644.0 44.0 L 645.0 45.0 L 649.0 45.0 L 650.0 46.0 L 657.0 47.0 L 658.0 48.0 L 666.0 50.0 L 669.0 52.0 L 671.0 52.0 L 681.0 57.0 L 683.0 59.0 L 686.0 60.0 L 695.0 66.0 L 717.0 87.0 L 727.0 101.0 L 736.0 118.0 L 736.0 120.0 L 740.0 128.0 L 740.0 131.0 L 741.0 132.0 L 741.0 135.0 L 743.0 139.0 L 743.0 143.0 L 745.0 148.0 L 745.0 156.0 L 746.0 157.0 L 746.0 181.0 L 745.0 182.0 L 744.0 195.0 L 743.0 196.0 L 743.0 199.0 L 739.0 210.0 L 738.0 216.0 L 726.0 239.0 L 724.0 238.0 L 723.0 239.0 L 721.0 239.0 L 720.0 238.0 L 717.0 238.0 L 715.0 236.0 L 708.0 235.0 L 707.0 234.0 L 708.0 231.0 L 711.0 227.0 L 711.0 225.0 L 713.0 222.0 L 713.0 220.0 L 715.0 216.0 L 715.0 212.0 L 716.0 211.0 L 716.0 192.0 L 715.0 191.0 L 715.0 187.0 L 714.0 186.0 L 713.0 181.0 L 709.0 173.0 L 706.0 169.0 L 699.0 163.0 L 702.0 158.0 L 702.0 155.0 L 703.0 154.0 L 702.0 146.0 L 700.0 142.0 L 697.0 139.0 L 693.0 137.0 L 690.0 137.0 L 686.0 139.0 L 685.0 138.0 L 684.0 139.0 L 681.0 139.0 L 672.0 145.0 L 669.0 145.0 L 653.0 151.0 L 651.0 150.0 L 646.0 150.0 L 632.0 157.0 L 630.0 157.0 L 629.0 156.0 L 623.0 156.0 L 620.0 159.0 L 610.0 163.0 L 608.0 161.0 L 607.0 157.0 L 602.0 149.0 L 597.0 144.0 L 591.0 141.0 L 580.0 141.0 L 571.0 145.0 L 568.0 147.0 L 558.0 158.0 L 556.0 163.0 L 554.0 165.0 L 554.0 167.0 L 552.0 170.0 L 552.0 172.0 L 549.0 179.0 L 548.0 191.0 L 547.0 192.0 L 547.0 207.0 L 548.0 208.0 L 548.0 214.0 L 549.0 215.0 L 549.0 217.0 L 548.0 218.0 L 546.0 217.0 L 544.0 218.0 L 543.0 220.0 L 541.0 220.0 L 540.0 219.0 L 538.0 220.0 L 536.0 223.0 L 536.0 226.0 L 535.0 227.0 L 535.0 229.0 L 536.0 230.0 L 535.0 231.0 L 529.0 230.0 L 529.0 231.0 L 534.0 232.0 L 535.0 233.0 L 534.0 234.0 L 530.0 234.0 L 531.0 235.0 L 542.0 235.0 L 543.0 236.0 L 542.0 237.0 L 529.0 237.0 L 528.0 236.0 L 525.0 236.0 L 518.0 224.0 L 518.0 222.0 L 515.0 217.0 L 515.0 215.0 L 513.0 212.0 L 512.0 206.0 L 510.0 202.0 L 509.0 194.0 L 508.0 193.0 L 508.0 188.0 L 507.0 187.0 L 507.0 180.0 L 506.0 179.0 L 506.0 160.0 L 507.0 159.0 L 508.0 145.0 L 509.0 144.0 L 511.0 133.0 L 512.0 132.0 L 515.0 121.0 L 523.0 105.0 Z M 727.0 116.0 L 725.0 116.0 L 724.0 117.0 L 704.0 123.0 L 701.0 125.0 L 696.0 126.0 L 698.0 131.0 L 701.0 131.0 L 702.0 130.0 L 705.0 130.0 L 706.0 131.0 L 706.0 134.0 L 704.0 136.0 L 704.0 138.0 L 706.0 142.0 L 710.0 140.0 L 730.0 123.0 L 728.0 120.0 Z M 718.0 126.0 L 711.0 131.0 L 710.0 130.0 L 710.0 128.0 L 711.0 127.0 L 713.0 127.0 L 716.0 125.0 Z M 529.0 110.0 L 523.0 121.0 L 523.0 123.0 L 539.0 132.0 L 541.0 134.0 L 551.0 139.0 L 553.0 134.0 L 542.0 127.0 L 544.0 123.0 L 544.0 121.0 L 541.0 119.0 L 537.0 124.0 L 533.0 122.0 L 530.0 119.0 L 534.0 112.0 L 531.0 110.0 Z M 711.0 94.0 L 707.0 96.0 L 707.0 98.0 L 709.0 100.0 L 688.0 117.0 L 692.0 121.0 L 710.0 106.0 L 713.0 105.0 L 715.0 108.0 L 719.0 106.0 L 719.0 104.0 Z M 542.0 93.0 L 536.0 100.0 L 537.0 102.0 L 537.0 106.0 L 540.0 109.0 L 542.0 109.0 L 544.0 106.0 L 544.0 104.0 L 542.0 101.0 L 544.0 99.0 L 547.0 100.0 L 551.0 104.0 L 548.0 109.0 L 552.0 111.0 L 556.0 108.0 L 563.0 114.0 L 561.0 117.0 L 557.0 115.0 L 554.0 117.0 L 554.0 119.0 L 558.0 123.0 L 563.0 123.0 L 569.0 116.0 L 568.0 111.0 L 559.0 103.0 L 556.0 103.0 L 555.0 102.0 L 556.0 101.0 L 555.0 99.0 L 548.0 93.0 Z M 694.0 77.0 L 692.0 77.0 L 690.0 80.0 L 693.0 84.0 L 675.0 105.0 L 679.0 109.0 L 697.0 88.0 L 701.0 90.0 L 704.0 87.0 L 704.0 86.0 Z M 672.0 64.0 L 657.0 94.0 L 657.0 95.0 L 659.0 95.0 L 661.0 97.0 L 669.0 101.0 L 671.0 98.0 L 671.0 96.0 L 668.0 95.0 L 664.0 92.0 L 667.0 86.0 L 669.0 84.0 L 672.0 86.0 L 675.0 84.0 L 675.0 82.0 L 671.0 79.0 L 673.0 74.0 L 676.0 72.0 L 680.0 75.0 L 682.0 75.0 L 684.0 71.0 Z M 585.0 63.0 L 579.0 66.0 L 579.0 70.0 L 580.0 71.0 L 580.0 74.0 L 582.0 79.0 L 581.0 81.0 L 572.0 70.0 L 570.0 70.0 L 566.0 73.0 L 571.0 83.0 L 571.0 85.0 L 574.0 89.0 L 581.0 103.0 L 583.0 103.0 L 586.0 101.0 L 582.0 92.0 L 580.0 90.0 L 581.0 88.0 L 589.0 97.0 L 590.0 96.0 L 589.0 89.0 L 587.0 85.0 L 587.0 83.0 L 588.0 82.0 L 594.0 95.0 L 596.0 96.0 L 599.0 94.0 L 599.0 92.0 Z M 579.0 87.0 L 580.0 86.0 L 581.0 88.0 L 580.0 89.0 Z M 655.0 58.0 L 654.0 63.0 L 652.0 67.0 L 652.0 70.0 L 650.0 74.0 L 647.0 89.0 L 646.0 90.0 L 647.0 92.0 L 649.0 92.0 L 650.0 93.0 L 652.0 92.0 L 652.0 89.0 L 654.0 85.0 L 656.0 74.0 L 657.0 73.0 L 659.0 63.0 L 660.0 62.0 L 660.0 60.0 L 658.0 60.0 Z M 610.0 56.0 L 603.0 57.0 L 602.0 58.0 L 603.0 92.0 L 607.0 92.0 L 609.0 90.0 L 608.0 89.0 L 608.0 86.0 L 610.0 84.0 L 613.0 84.0 L 616.0 89.0 L 620.0 89.0 L 621.0 88.0 L 620.0 87.0 L 614.0 67.0 L 612.0 64.0 Z M 608.0 68.0 L 610.0 71.0 L 610.0 73.0 L 612.0 77.0 L 611.0 79.0 L 609.0 79.0 L 608.0 78.0 L 608.0 72.0 L 607.0 71.0 L 607.0 69.0 Z M 627.0 55.0 L 627.0 66.0 L 626.0 67.0 L 626.0 80.0 L 625.0 81.0 L 625.0 88.0 L 630.0 89.0 L 631.0 76.0 L 633.0 75.0 L 634.0 76.0 L 635.0 89.0 L 641.0 90.0 L 641.0 88.0 L 640.0 87.0 L 640.0 82.0 L 639.0 81.0 L 639.0 75.0 L 642.0 72.0 L 642.0 58.0 L 638.0 55.0 Z M 633.0 60.0 L 635.0 60.0 L 637.0 62.0 L 637.0 65.0 L 635.0 70.0 L 633.0 70.0 L 632.0 69.0 L 632.0 61.0 Z" fill="#000000" fill-rule="evenodd" stroke="none"/>
</svg>
